<mxfile host="app.diagrams.net" modified="2024-03-05T10:59:12.447Z" agent="Mozilla/5.0 (Windows NT 10.0; Win64; x64) AppleWebKit/537.36 (KHTML, like Gecko) Chrome/122.0.0.0 Safari/537.36 Edg/122.0.0.0" etag="EwWBoa0QKy9JzQRQSh-5" version="24.0.1" type="github" pages="4">
  <diagram name="Chapters" id="edf60f1a-56cd-e834-aa8a-f176f3a09ee4">
    <mxGraphModel dx="2894" dy="2509" grid="1" gridSize="10" guides="1" tooltips="1" connect="1" arrows="1" fold="1" page="1" pageScale="1" pageWidth="1100" pageHeight="850" background="none" math="0" shadow="0">
      <root>
        <mxCell id="0" />
        <mxCell id="1" parent="0" />
        <mxCell id="tJclO1nsjDoBGuYmWMXy-56" value="" style="rounded=1;whiteSpace=wrap;html=1;fillColor=#f5f5f5;fontColor=#333333;strokeColor=#666666;strokeWidth=2;shadow=0;dashed=1;" parent="1" vertex="1">
          <mxGeometry x="680" y="410" width="740" height="450" as="geometry" />
        </mxCell>
        <mxCell id="tJclO1nsjDoBGuYmWMXy-57" value="" style="rounded=1;whiteSpace=wrap;html=1;fillColor=#f5f5f5;fontColor=#333333;strokeColor=#666666;strokeWidth=2;shadow=0;dashed=1;" parent="1" vertex="1">
          <mxGeometry x="910" y="540" width="510" height="200" as="geometry" />
        </mxCell>
        <mxCell id="tJclO1nsjDoBGuYmWMXy-53" value="" style="rounded=1;whiteSpace=wrap;html=1;fillColor=#f5f5f5;fontColor=#333333;strokeColor=#666666;strokeWidth=2;shadow=0;dashed=1;" parent="1" vertex="1">
          <mxGeometry x="680" y="300" width="740" height="100" as="geometry" />
        </mxCell>
        <mxCell id="tJclO1nsjDoBGuYmWMXy-51" value="" style="rounded=1;whiteSpace=wrap;html=1;fillColor=#f5f5f5;fontColor=#333333;strokeColor=#666666;strokeWidth=2;shadow=0;dashed=1;" parent="1" vertex="1">
          <mxGeometry x="680" y="190" width="740" height="100" as="geometry" />
        </mxCell>
        <mxCell id="tJclO1nsjDoBGuYmWMXy-38" style="edgeStyle=orthogonalEdgeStyle;rounded=0;orthogonalLoop=1;jettySize=auto;html=1;entryX=1;entryY=0.5;entryDx=0;entryDy=0;dashed=1;dashPattern=8 8;exitX=1;exitY=0.5;exitDx=0;exitDy=0;fontSize=12;" parent="1" source="tJclO1nsjDoBGuYmWMXy-41" target="tJclO1nsjDoBGuYmWMXy-36" edge="1">
          <mxGeometry relative="1" as="geometry">
            <mxPoint x="1060" y="130" as="sourcePoint" />
            <Array as="points">
              <mxPoint x="1140" y="122" />
              <mxPoint x="1140" y="20" />
            </Array>
          </mxGeometry>
        </mxCell>
        <mxCell id="tJclO1nsjDoBGuYmWMXy-40" value="No" style="edgeLabel;html=1;align=center;verticalAlign=middle;resizable=0;points=[];fontSize=12;" parent="tJclO1nsjDoBGuYmWMXy-38" vertex="1" connectable="0">
          <mxGeometry x="-0.679" y="1" relative="1" as="geometry">
            <mxPoint as="offset" />
          </mxGeometry>
        </mxCell>
        <mxCell id="tJclO1nsjDoBGuYmWMXy-7" style="edgeStyle=orthogonalEdgeStyle;rounded=0;orthogonalLoop=1;jettySize=auto;html=1;entryX=0.5;entryY=0;entryDx=0;entryDy=0;fontSize=12;" parent="1" source="tJclO1nsjDoBGuYmWMXy-1" target="tJclO1nsjDoBGuYmWMXy-6" edge="1">
          <mxGeometry relative="1" as="geometry" />
        </mxCell>
        <mxCell id="tJclO1nsjDoBGuYmWMXy-1" value="Conceptualization" style="rounded=0;whiteSpace=wrap;html=1;shadow=1;labelBackgroundColor=none;strokeWidth=1;fontFamily=Verdana;fontSize=12;align=center;" parent="1" vertex="1">
          <mxGeometry x="940" y="210" width="120" height="60" as="geometry" />
        </mxCell>
        <mxCell id="tJclO1nsjDoBGuYmWMXy-22" value="" style="edgeStyle=orthogonalEdgeStyle;rounded=0;orthogonalLoop=1;jettySize=auto;html=1;fontSize=12;" parent="1" source="tJclO1nsjDoBGuYmWMXy-6" target="tJclO1nsjDoBGuYmWMXy-14" edge="1">
          <mxGeometry relative="1" as="geometry" />
        </mxCell>
        <mxCell id="tJclO1nsjDoBGuYmWMXy-6" value="Model architecture&amp;nbsp;" style="rounded=0;whiteSpace=wrap;html=1;shadow=1;labelBackgroundColor=none;strokeWidth=1;fontFamily=Verdana;fontSize=12;align=center;" parent="1" vertex="1">
          <mxGeometry x="940" y="320" width="120" height="60" as="geometry" />
        </mxCell>
        <mxCell id="tJclO1nsjDoBGuYmWMXy-9" style="edgeStyle=orthogonalEdgeStyle;rounded=0;orthogonalLoop=1;jettySize=auto;html=1;entryX=1;entryY=0.5;entryDx=0;entryDy=0;fontSize=12;" parent="1" source="tJclO1nsjDoBGuYmWMXy-8" target="tJclO1nsjDoBGuYmWMXy-1" edge="1">
          <mxGeometry relative="1" as="geometry" />
        </mxCell>
        <mxCell id="tJclO1nsjDoBGuYmWMXy-8" value="Literature research" style="rounded=1;whiteSpace=wrap;html=1;shadow=1;labelBackgroundColor=none;strokeWidth=1;fontFamily=Verdana;fontSize=12;align=center;" parent="1" vertex="1">
          <mxGeometry x="1130" y="220" width="100" height="40" as="geometry" />
        </mxCell>
        <mxCell id="tJclO1nsjDoBGuYmWMXy-32" style="edgeStyle=orthogonalEdgeStyle;rounded=0;orthogonalLoop=1;jettySize=auto;html=1;entryX=0;entryY=0.5;entryDx=0;entryDy=0;dashed=1;fontSize=12;exitX=0;exitY=0.5;exitDx=0;exitDy=0;dashPattern=8 8;" parent="1" source="tJclO1nsjDoBGuYmWMXy-47" target="tJclO1nsjDoBGuYmWMXy-14" edge="1">
          <mxGeometry relative="1" as="geometry">
            <mxPoint x="910" y="460" as="targetPoint" />
            <mxPoint x="950.0980392156866" y="890.0588235294117" as="sourcePoint" />
            <Array as="points">
              <mxPoint x="781" y="808" />
              <mxPoint x="781" y="455" />
            </Array>
          </mxGeometry>
        </mxCell>
        <mxCell id="tJclO1nsjDoBGuYmWMXy-33" value="No" style="edgeLabel;html=1;align=center;verticalAlign=middle;resizable=0;points=[];fontSize=12;" parent="tJclO1nsjDoBGuYmWMXy-32" vertex="1" connectable="0">
          <mxGeometry x="-0.8885" relative="1" as="geometry">
            <mxPoint as="offset" />
          </mxGeometry>
        </mxCell>
        <mxCell id="tJclO1nsjDoBGuYmWMXy-35" style="edgeStyle=orthogonalEdgeStyle;rounded=0;orthogonalLoop=1;jettySize=auto;html=1;exitX=0.5;exitY=1;exitDx=0;exitDy=0;entryX=0.5;entryY=0;entryDx=0;entryDy=0;fontSize=12;" parent="1" target="tJclO1nsjDoBGuYmWMXy-34" edge="1">
          <mxGeometry relative="1" as="geometry">
            <mxPoint x="1000" y="920" as="sourcePoint" />
          </mxGeometry>
        </mxCell>
        <mxCell id="tJclO1nsjDoBGuYmWMXy-13" value="" style="edgeStyle=orthogonalEdgeStyle;rounded=0;orthogonalLoop=1;jettySize=auto;html=1;fontSize=12;" parent="1" source="tJclO1nsjDoBGuYmWMXy-12" target="tJclO1nsjDoBGuYmWMXy-1" edge="1">
          <mxGeometry relative="1" as="geometry" />
        </mxCell>
        <mxCell id="tJclO1nsjDoBGuYmWMXy-12" value="Expert interviews" style="rounded=1;whiteSpace=wrap;html=1;shadow=1;labelBackgroundColor=none;strokeWidth=1;fontFamily=Verdana;fontSize=12;align=center;" parent="1" vertex="1">
          <mxGeometry x="770" y="220" width="100" height="40" as="geometry" />
        </mxCell>
        <mxCell id="tJclO1nsjDoBGuYmWMXy-23" style="edgeStyle=orthogonalEdgeStyle;rounded=0;orthogonalLoop=1;jettySize=auto;html=1;entryX=0.5;entryY=0;entryDx=0;entryDy=0;fontSize=12;" parent="1" source="tJclO1nsjDoBGuYmWMXy-14" target="tJclO1nsjDoBGuYmWMXy-18" edge="1">
          <mxGeometry relative="1" as="geometry">
            <Array as="points">
              <mxPoint x="1000" y="520" />
              <mxPoint x="1090" y="520" />
            </Array>
          </mxGeometry>
        </mxCell>
        <mxCell id="NG6jBYZI90vvYnXtw836-25" style="edgeStyle=orthogonalEdgeStyle;rounded=0;orthogonalLoop=1;jettySize=auto;html=1;entryX=0;entryY=0.5;entryDx=0;entryDy=0;" parent="1" source="tJclO1nsjDoBGuYmWMXy-14" target="tJclO1nsjDoBGuYmWMXy-16" edge="1">
          <mxGeometry relative="1" as="geometry">
            <Array as="points">
              <mxPoint x="1000" y="520" />
              <mxPoint x="880" y="520" />
              <mxPoint x="880" y="680" />
            </Array>
          </mxGeometry>
        </mxCell>
        <mxCell id="tJclO1nsjDoBGuYmWMXy-14" value="Model implementation" style="rounded=0;whiteSpace=wrap;html=1;shadow=1;labelBackgroundColor=none;strokeWidth=1;fontFamily=Verdana;fontSize=12;align=center;" parent="1" vertex="1">
          <mxGeometry x="940" y="425" width="120" height="60" as="geometry" />
        </mxCell>
        <mxCell id="tJclO1nsjDoBGuYmWMXy-49" style="edgeStyle=orthogonalEdgeStyle;rounded=0;orthogonalLoop=1;jettySize=auto;html=1;entryX=0.5;entryY=0;entryDx=0;entryDy=0;" parent="1" source="tJclO1nsjDoBGuYmWMXy-16" target="tJclO1nsjDoBGuYmWMXy-47" edge="1">
          <mxGeometry relative="1" as="geometry" />
        </mxCell>
        <mxCell id="tJclO1nsjDoBGuYmWMXy-16" value="Testing and validation" style="rounded=0;whiteSpace=wrap;html=1;shadow=1;labelBackgroundColor=none;strokeWidth=1;fontFamily=Verdana;fontSize=12;align=center;" parent="1" vertex="1">
          <mxGeometry x="940" y="650" width="120" height="60" as="geometry" />
        </mxCell>
        <mxCell id="tJclO1nsjDoBGuYmWMXy-26" style="edgeStyle=orthogonalEdgeStyle;rounded=0;orthogonalLoop=1;jettySize=auto;html=1;entryX=1;entryY=0.5;entryDx=0;entryDy=0;fontSize=12;" parent="1" source="tJclO1nsjDoBGuYmWMXy-18" target="tJclO1nsjDoBGuYmWMXy-16" edge="1">
          <mxGeometry relative="1" as="geometry" />
        </mxCell>
        <mxCell id="tJclO1nsjDoBGuYmWMXy-18" value="Visualization" style="rounded=0;whiteSpace=wrap;html=1;shadow=1;labelBackgroundColor=none;strokeWidth=1;fontFamily=Verdana;fontSize=12;align=center;" parent="1" vertex="1">
          <mxGeometry x="1030" y="560" width="120" height="60" as="geometry" />
        </mxCell>
        <mxCell id="tJclO1nsjDoBGuYmWMXy-24" value="" style="edgeStyle=orthogonalEdgeStyle;rounded=0;orthogonalLoop=1;jettySize=auto;html=1;fontSize=12;" parent="1" source="tJclO1nsjDoBGuYmWMXy-20" target="tJclO1nsjDoBGuYmWMXy-18" edge="1">
          <mxGeometry relative="1" as="geometry" />
        </mxCell>
        <mxCell id="tJclO1nsjDoBGuYmWMXy-20" value="Use cases deducted from stakeholder interviews" style="rounded=1;whiteSpace=wrap;html=1;shadow=1;labelBackgroundColor=none;strokeWidth=1;fontFamily=Verdana;fontSize=12;align=center;" parent="1" vertex="1">
          <mxGeometry x="1210" y="560" width="170" height="60" as="geometry" />
        </mxCell>
        <mxCell id="tJclO1nsjDoBGuYmWMXy-48" value="" style="edgeStyle=orthogonalEdgeStyle;rounded=0;orthogonalLoop=1;jettySize=auto;html=1;exitX=0.5;exitY=1;exitDx=0;exitDy=0;" parent="1" source="tJclO1nsjDoBGuYmWMXy-47" target="tJclO1nsjDoBGuYmWMXy-34" edge="1">
          <mxGeometry relative="1" as="geometry">
            <mxPoint x="1000" y="910" as="sourcePoint" />
          </mxGeometry>
        </mxCell>
        <mxCell id="tJclO1nsjDoBGuYmWMXy-43" value="" style="edgeStyle=orthogonalEdgeStyle;rounded=0;orthogonalLoop=1;jettySize=auto;html=1;fontSize=12;" parent="1" source="tJclO1nsjDoBGuYmWMXy-34" target="tJclO1nsjDoBGuYmWMXy-42" edge="1">
          <mxGeometry relative="1" as="geometry" />
        </mxCell>
        <mxCell id="tJclO1nsjDoBGuYmWMXy-34" value="Analysis of results" style="rounded=0;whiteSpace=wrap;html=1;shadow=1;labelBackgroundColor=none;strokeWidth=1;fontFamily=Verdana;fontSize=12;align=center;" parent="1" vertex="1">
          <mxGeometry x="940" y="910" width="120" height="60" as="geometry" />
        </mxCell>
        <mxCell id="tJclO1nsjDoBGuYmWMXy-44" style="edgeStyle=orthogonalEdgeStyle;rounded=0;orthogonalLoop=1;jettySize=auto;html=1;entryX=0.5;entryY=0;entryDx=0;entryDy=0;" parent="1" source="tJclO1nsjDoBGuYmWMXy-36" target="tJclO1nsjDoBGuYmWMXy-41" edge="1">
          <mxGeometry relative="1" as="geometry" />
        </mxCell>
        <mxCell id="tJclO1nsjDoBGuYmWMXy-36" value="Literature research" style="rounded=0;whiteSpace=wrap;html=1;shadow=1;labelBackgroundColor=none;strokeWidth=1;fontFamily=Verdana;fontSize=12;align=center;" parent="1" vertex="1">
          <mxGeometry x="940" y="-10" width="120" height="60" as="geometry" />
        </mxCell>
        <mxCell id="tJclO1nsjDoBGuYmWMXy-46" style="edgeStyle=orthogonalEdgeStyle;rounded=0;orthogonalLoop=1;jettySize=auto;html=1;entryX=0.5;entryY=0;entryDx=0;entryDy=0;" parent="1" source="tJclO1nsjDoBGuYmWMXy-41" target="tJclO1nsjDoBGuYmWMXy-1" edge="1">
          <mxGeometry relative="1" as="geometry" />
        </mxCell>
        <mxCell id="tJclO1nsjDoBGuYmWMXy-41" value="Problem&lt;br style=&quot;font-size: 12px;&quot;&gt;&amp;nbsp;identification&amp;nbsp;" style="rhombus;whiteSpace=wrap;html=1;rounded=0;shadow=1;labelBackgroundColor=none;strokeWidth=1;fontFamily=Verdana;fontSize=12;align=center;" parent="1" vertex="1">
          <mxGeometry x="930" y="80" width="140" height="84" as="geometry" />
        </mxCell>
        <mxCell id="tJclO1nsjDoBGuYmWMXy-42" value="Conclusion and recommendations" style="rounded=0;whiteSpace=wrap;html=1;shadow=1;labelBackgroundColor=none;strokeWidth=1;fontFamily=Verdana;fontSize=12;align=center;" parent="1" vertex="1">
          <mxGeometry x="940" y="1020" width="120" height="60" as="geometry" />
        </mxCell>
        <mxCell id="tJclO1nsjDoBGuYmWMXy-47" value="Validated?" style="rhombus;whiteSpace=wrap;html=1;rounded=0;shadow=1;labelBackgroundColor=none;strokeWidth=1;fontFamily=Verdana;fontSize=12;align=center;" parent="1" vertex="1">
          <mxGeometry x="930" y="766" width="140" height="84" as="geometry" />
        </mxCell>
        <mxCell id="tJclO1nsjDoBGuYmWMXy-59" value="" style="shape=flexArrow;endArrow=classic;html=1;rounded=0;" parent="1" edge="1">
          <mxGeometry width="50" height="50" relative="1" as="geometry">
            <mxPoint x="1740" y="-90" as="sourcePoint" />
            <mxPoint x="1740" y="160" as="targetPoint" />
          </mxGeometry>
        </mxCell>
        <mxCell id="tJclO1nsjDoBGuYmWMXy-60" value="&lt;font style=&quot;font-size: 16px;&quot;&gt;Qualitative&lt;/font&gt;" style="edgeLabel;html=1;align=center;verticalAlign=middle;resizable=0;points=[];" parent="tJclO1nsjDoBGuYmWMXy-59" vertex="1" connectable="0">
          <mxGeometry x="-0.0197" y="-4" relative="1" as="geometry">
            <mxPoint as="offset" />
          </mxGeometry>
        </mxCell>
        <mxCell id="tJclO1nsjDoBGuYmWMXy-61" value="" style="shape=flexArrow;endArrow=classic;html=1;rounded=0;" parent="1" edge="1">
          <mxGeometry width="50" height="50" relative="1" as="geometry">
            <mxPoint x="1740" y="340" as="sourcePoint" />
            <mxPoint x="1740" y="760" as="targetPoint" />
          </mxGeometry>
        </mxCell>
        <mxCell id="tJclO1nsjDoBGuYmWMXy-62" value="&lt;font style=&quot;font-size: 16px;&quot;&gt;Transitional&lt;/font&gt;" style="edgeLabel;html=1;align=center;verticalAlign=middle;resizable=0;points=[];" parent="tJclO1nsjDoBGuYmWMXy-61" vertex="1" connectable="0">
          <mxGeometry x="-0.0197" y="-4" relative="1" as="geometry">
            <mxPoint as="offset" />
          </mxGeometry>
        </mxCell>
        <mxCell id="tJclO1nsjDoBGuYmWMXy-63" value="" style="shape=flexArrow;endArrow=classic;html=1;rounded=0;" parent="1" edge="1">
          <mxGeometry width="50" height="50" relative="1" as="geometry">
            <mxPoint x="1740" y="770" as="sourcePoint" />
            <mxPoint x="1740" y="1060" as="targetPoint" />
          </mxGeometry>
        </mxCell>
        <mxCell id="tJclO1nsjDoBGuYmWMXy-64" value="&lt;font style=&quot;font-size: 16px;&quot;&gt;Deductive&lt;/font&gt;" style="edgeLabel;html=1;align=center;verticalAlign=middle;resizable=0;points=[];" parent="tJclO1nsjDoBGuYmWMXy-63" vertex="1" connectable="0">
          <mxGeometry x="-0.0197" y="-4" relative="1" as="geometry">
            <mxPoint as="offset" />
          </mxGeometry>
        </mxCell>
        <mxCell id="NG6jBYZI90vvYnXtw836-3" value="" style="edgeStyle=orthogonalEdgeStyle;rounded=0;orthogonalLoop=1;jettySize=auto;html=1;fontSize=14;" parent="1" source="NG6jBYZI90vvYnXtw836-1" target="NG6jBYZI90vvYnXtw836-2" edge="1">
          <mxGeometry relative="1" as="geometry" />
        </mxCell>
        <mxCell id="NG6jBYZI90vvYnXtw836-1" value="Chapter 1: Introduction" style="rounded=1;whiteSpace=wrap;html=1;shadow=1;labelBackgroundColor=none;strokeWidth=1;fontFamily=Verdana;fontSize=14;align=center;" parent="1" vertex="1">
          <mxGeometry x="2040" y="-60" width="490" height="80" as="geometry" />
        </mxCell>
        <mxCell id="NG6jBYZI90vvYnXtw836-6" value="" style="edgeStyle=orthogonalEdgeStyle;rounded=0;orthogonalLoop=1;jettySize=auto;html=1;fontSize=14;" parent="1" source="NG6jBYZI90vvYnXtw836-2" target="NG6jBYZI90vvYnXtw836-5" edge="1">
          <mxGeometry relative="1" as="geometry" />
        </mxCell>
        <mxCell id="NG6jBYZI90vvYnXtw836-2" value="Chapter 2: Current state of MEM modelling" style="rounded=1;whiteSpace=wrap;html=1;shadow=1;labelBackgroundColor=none;strokeWidth=1;fontFamily=Verdana;fontSize=14;align=center;" parent="1" vertex="1">
          <mxGeometry x="2041" y="94" width="490" height="80" as="geometry" />
        </mxCell>
        <mxCell id="NG6jBYZI90vvYnXtw836-8" value="" style="edgeStyle=orthogonalEdgeStyle;rounded=0;orthogonalLoop=1;jettySize=auto;html=1;fontSize=14;" parent="1" source="NG6jBYZI90vvYnXtw836-5" target="NG6jBYZI90vvYnXtw836-7" edge="1">
          <mxGeometry relative="1" as="geometry" />
        </mxCell>
        <mxCell id="NG6jBYZI90vvYnXtw836-5" value="Chapter 3: Theoretical framework" style="rounded=1;whiteSpace=wrap;html=1;shadow=1;labelBackgroundColor=none;strokeWidth=1;fontFamily=Verdana;fontSize=14;align=center;" parent="1" vertex="1">
          <mxGeometry x="2041" y="248" width="490" height="80" as="geometry" />
        </mxCell>
        <mxCell id="NG6jBYZI90vvYnXtw836-10" value="" style="edgeStyle=orthogonalEdgeStyle;rounded=0;orthogonalLoop=1;jettySize=auto;html=1;fontSize=14;" parent="1" source="NG6jBYZI90vvYnXtw836-7" target="NG6jBYZI90vvYnXtw836-9" edge="1">
          <mxGeometry relative="1" as="geometry" />
        </mxCell>
        <mxCell id="NG6jBYZI90vvYnXtw836-7" value="Chapter 4: Research approach and methodology" style="rounded=1;whiteSpace=wrap;html=1;shadow=1;labelBackgroundColor=none;strokeWidth=1;fontFamily=Verdana;fontSize=14;align=center;" parent="1" vertex="1">
          <mxGeometry x="2041" y="402" width="490" height="80" as="geometry" />
        </mxCell>
        <mxCell id="NG6jBYZI90vvYnXtw836-12" value="" style="edgeStyle=orthogonalEdgeStyle;rounded=0;orthogonalLoop=1;jettySize=auto;html=1;fontSize=14;" parent="1" source="NG6jBYZI90vvYnXtw836-9" target="NG6jBYZI90vvYnXtw836-11" edge="1">
          <mxGeometry relative="1" as="geometry" />
        </mxCell>
        <mxCell id="NG6jBYZI90vvYnXtw836-9" value="Chapter 5: Model conceptualization" style="rounded=1;whiteSpace=wrap;html=1;shadow=1;labelBackgroundColor=none;strokeWidth=1;fontFamily=Verdana;fontSize=14;align=center;" parent="1" vertex="1">
          <mxGeometry x="2041" y="556" width="490" height="80" as="geometry" />
        </mxCell>
        <mxCell id="NG6jBYZI90vvYnXtw836-14" value="" style="edgeStyle=orthogonalEdgeStyle;rounded=0;orthogonalLoop=1;jettySize=auto;html=1;fontSize=14;" parent="1" source="NG6jBYZI90vvYnXtw836-11" target="NG6jBYZI90vvYnXtw836-13" edge="1">
          <mxGeometry relative="1" as="geometry" />
        </mxCell>
        <mxCell id="NG6jBYZI90vvYnXtw836-11" value="Chapter 6: Model architecture" style="rounded=1;whiteSpace=wrap;html=1;shadow=1;labelBackgroundColor=none;strokeWidth=1;fontFamily=Verdana;fontSize=14;align=center;" parent="1" vertex="1">
          <mxGeometry x="2041" y="710" width="490" height="80" as="geometry" />
        </mxCell>
        <mxCell id="NG6jBYZI90vvYnXtw836-16" value="" style="edgeStyle=orthogonalEdgeStyle;rounded=0;orthogonalLoop=1;jettySize=auto;html=1;fontSize=14;" parent="1" source="NG6jBYZI90vvYnXtw836-13" target="NG6jBYZI90vvYnXtw836-15" edge="1">
          <mxGeometry relative="1" as="geometry" />
        </mxCell>
        <mxCell id="NG6jBYZI90vvYnXtw836-13" value="Chapter 7: Model formalization" style="rounded=1;whiteSpace=wrap;html=1;shadow=1;labelBackgroundColor=none;strokeWidth=1;fontFamily=Verdana;fontSize=14;align=center;" parent="1" vertex="1">
          <mxGeometry x="2041" y="864" width="490" height="80" as="geometry" />
        </mxCell>
        <mxCell id="NG6jBYZI90vvYnXtw836-18" value="" style="edgeStyle=orthogonalEdgeStyle;rounded=0;orthogonalLoop=1;jettySize=auto;html=1;fontSize=14;" parent="1" source="NG6jBYZI90vvYnXtw836-15" target="NG6jBYZI90vvYnXtw836-17" edge="1">
          <mxGeometry relative="1" as="geometry" />
        </mxCell>
        <mxCell id="NG6jBYZI90vvYnXtw836-15" value="Chapter 8: Digital Twin" style="rounded=1;whiteSpace=wrap;html=1;shadow=1;labelBackgroundColor=none;strokeWidth=1;fontFamily=Verdana;fontSize=14;align=center;" parent="1" vertex="1">
          <mxGeometry x="2041" y="1018" width="490" height="80" as="geometry" />
        </mxCell>
        <mxCell id="NG6jBYZI90vvYnXtw836-24" value="" style="edgeStyle=orthogonalEdgeStyle;rounded=0;orthogonalLoop=1;jettySize=auto;html=1;" parent="1" source="NG6jBYZI90vvYnXtw836-17" target="NG6jBYZI90vvYnXtw836-23" edge="1">
          <mxGeometry relative="1" as="geometry" />
        </mxCell>
        <mxCell id="NG6jBYZI90vvYnXtw836-31" value="" style="edgeStyle=orthogonalEdgeStyle;rounded=0;orthogonalLoop=1;jettySize=auto;html=1;" parent="1" source="NG6jBYZI90vvYnXtw836-17" target="NG6jBYZI90vvYnXtw836-30" edge="1">
          <mxGeometry relative="1" as="geometry" />
        </mxCell>
        <mxCell id="NG6jBYZI90vvYnXtw836-17" value="Chapter 9: Results and discussion" style="rounded=1;whiteSpace=wrap;html=1;shadow=1;labelBackgroundColor=none;strokeWidth=1;fontFamily=Verdana;fontSize=14;align=center;" parent="1" vertex="1">
          <mxGeometry x="2041" y="1172" width="490" height="80" as="geometry" />
        </mxCell>
        <mxCell id="NG6jBYZI90vvYnXtw836-19" value="Research question 1" style="rounded=1;whiteSpace=wrap;html=1;shadow=1;labelBackgroundColor=none;strokeWidth=1;fontFamily=Verdana;fontSize=14;align=center;" parent="1" vertex="1">
          <mxGeometry x="2590" y="558" width="160" height="60" as="geometry" />
        </mxCell>
        <mxCell id="NG6jBYZI90vvYnXtw836-20" value="Research question 2" style="rounded=1;whiteSpace=wrap;html=1;shadow=1;labelBackgroundColor=none;strokeWidth=1;fontFamily=Verdana;fontSize=14;align=center;" parent="1" vertex="1">
          <mxGeometry x="2590" y="718" width="160" height="60" as="geometry" />
        </mxCell>
        <mxCell id="NG6jBYZI90vvYnXtw836-21" value="Research question 3" style="rounded=1;whiteSpace=wrap;html=1;shadow=1;labelBackgroundColor=none;strokeWidth=1;fontFamily=Verdana;fontSize=14;align=center;" parent="1" vertex="1">
          <mxGeometry x="2590" y="878" width="160" height="60" as="geometry" />
        </mxCell>
        <mxCell id="NG6jBYZI90vvYnXtw836-22" value="Research question 4" style="rounded=1;whiteSpace=wrap;html=1;shadow=1;labelBackgroundColor=none;strokeWidth=1;fontFamily=Verdana;fontSize=14;align=center;" parent="1" vertex="1">
          <mxGeometry x="2590" y="1038" width="160" height="60" as="geometry" />
        </mxCell>
        <mxCell id="NG6jBYZI90vvYnXtw836-23" value="Chapter 10: Further research" style="rounded=1;whiteSpace=wrap;html=1;shadow=1;labelBackgroundColor=none;strokeWidth=1;fontFamily=Verdana;fontSize=14;align=center;" parent="1" vertex="1">
          <mxGeometry x="2040" y="1480" width="490" height="80" as="geometry" />
        </mxCell>
        <mxCell id="NG6jBYZI90vvYnXtw836-26" value="Research question 1" style="rounded=1;whiteSpace=wrap;html=1;shadow=1;labelBackgroundColor=none;strokeWidth=1;fontFamily=Verdana;fontSize=14;align=center;" parent="1" vertex="1">
          <mxGeometry x="1330" y="230" width="160" height="60" as="geometry" />
        </mxCell>
        <mxCell id="NG6jBYZI90vvYnXtw836-27" value="Research question 2" style="rounded=1;whiteSpace=wrap;html=1;shadow=1;labelBackgroundColor=none;strokeWidth=1;fontFamily=Verdana;fontSize=14;align=center;" parent="1" vertex="1">
          <mxGeometry x="1330" y="340" width="160" height="60" as="geometry" />
        </mxCell>
        <mxCell id="NG6jBYZI90vvYnXtw836-28" value="Research question 3" style="rounded=1;whiteSpace=wrap;html=1;shadow=1;labelBackgroundColor=none;strokeWidth=1;fontFamily=Verdana;fontSize=14;align=center;" parent="1" vertex="1">
          <mxGeometry x="1320" y="800" width="160" height="60" as="geometry" />
        </mxCell>
        <mxCell id="NG6jBYZI90vvYnXtw836-29" value="Research question 4" style="rounded=1;whiteSpace=wrap;html=1;shadow=1;labelBackgroundColor=none;strokeWidth=1;fontFamily=Verdana;fontSize=14;align=center;" parent="1" vertex="1">
          <mxGeometry x="1320" y="680" width="160" height="60" as="geometry" />
        </mxCell>
        <mxCell id="NG6jBYZI90vvYnXtw836-30" value="Chapter 9: Conclusion" style="rounded=1;whiteSpace=wrap;html=1;shadow=1;labelBackgroundColor=none;strokeWidth=1;fontFamily=Verdana;fontSize=14;align=center;" parent="1" vertex="1">
          <mxGeometry x="2041" y="1326" width="490" height="80" as="geometry" />
        </mxCell>
      </root>
    </mxGraphModel>
  </diagram>
  <diagram id="ZyJ0kRKOSs01C274n4K2" name="Model architecture">
    <mxGraphModel dx="2876" dy="1161" grid="1" gridSize="10" guides="1" tooltips="1" connect="1" arrows="1" fold="1" page="1" pageScale="1" pageWidth="850" pageHeight="1100" math="0" shadow="0">
      <root>
        <mxCell id="0" />
        <mxCell id="1" parent="0" />
        <mxCell id="oaU1He6_CLvsL4cnX-EE-1" value="" style="rounded=1;whiteSpace=wrap;html=1;strokeColor=#666666;dashed=1;fillColor=#f5f5f5;fontColor=#333333;strokeWidth=2;" parent="1" vertex="1">
          <mxGeometry x="-50" y="260" width="970" height="700" as="geometry" />
        </mxCell>
        <mxCell id="oaU1He6_CLvsL4cnX-EE-2" value="Fuel cell" style="rounded=0;whiteSpace=wrap;html=1;" parent="1" vertex="1">
          <mxGeometry x="640" y="750" width="120" height="60" as="geometry" />
        </mxCell>
        <mxCell id="oaU1He6_CLvsL4cnX-EE-3" value="PV power" style="rounded=0;whiteSpace=wrap;html=1;" parent="1" vertex="1">
          <mxGeometry x="20" y="310" width="120" height="60" as="geometry" />
        </mxCell>
        <mxCell id="oaU1He6_CLvsL4cnX-EE-86" style="edgeStyle=orthogonalEdgeStyle;rounded=0;orthogonalLoop=1;jettySize=auto;html=1;startArrow=classic;startFill=1;fillColor=#d5e8d4;strokeColor=#82b366;" parent="1" source="oaU1He6_CLvsL4cnX-EE-43" edge="1">
          <mxGeometry relative="1" as="geometry">
            <mxPoint x="390" y="380" as="targetPoint" />
            <Array as="points">
              <mxPoint x="560" y="440" />
              <mxPoint x="560" y="340" />
              <mxPoint x="390" y="340" />
            </Array>
          </mxGeometry>
        </mxCell>
        <mxCell id="oaU1He6_CLvsL4cnX-EE-90" style="edgeStyle=orthogonalEdgeStyle;rounded=0;orthogonalLoop=1;jettySize=auto;html=1;endArrow=none;endFill=0;fillColor=#d5e8d4;strokeColor=#82b366;" parent="1" source="oaU1He6_CLvsL4cnX-EE-43" edge="1">
          <mxGeometry relative="1" as="geometry">
            <mxPoint x="840" y="440" as="targetPoint" />
          </mxGeometry>
        </mxCell>
        <mxCell id="oaU1He6_CLvsL4cnX-EE-43" value="EV batteries" style="rounded=0;whiteSpace=wrap;html=1;" parent="1" vertex="1">
          <mxGeometry x="640" y="410" width="120" height="60" as="geometry" />
        </mxCell>
        <mxCell id="oaU1He6_CLvsL4cnX-EE-98" style="edgeStyle=orthogonalEdgeStyle;rounded=0;orthogonalLoop=1;jettySize=auto;html=1;exitX=0.25;exitY=0;exitDx=0;exitDy=0;endArrow=none;endFill=0;startArrow=classic;startFill=1;fillColor=#d5e8d4;strokeColor=#82b366;" parent="1" source="oaU1He6_CLvsL4cnX-EE-44" edge="1">
          <mxGeometry relative="1" as="geometry">
            <mxPoint x="240" y="380" as="targetPoint" />
            <Array as="points">
              <mxPoint x="320" y="640" />
              <mxPoint x="240" y="640" />
            </Array>
          </mxGeometry>
        </mxCell>
        <mxCell id="oaU1He6_CLvsL4cnX-EE-44" value="Commercial and Residential loads" style="rounded=0;whiteSpace=wrap;html=1;" parent="1" vertex="1">
          <mxGeometry x="290" y="680" width="120" height="60" as="geometry" />
        </mxCell>
        <mxCell id="oaU1He6_CLvsL4cnX-EE-93" style="edgeStyle=orthogonalEdgeStyle;rounded=0;orthogonalLoop=1;jettySize=auto;html=1;entryX=1;entryY=0.5;entryDx=0;entryDy=0;fillColor=#dae8fc;strokeColor=#6c8ebf;" parent="1" source="oaU1He6_CLvsL4cnX-EE-46" target="oaU1He6_CLvsL4cnX-EE-47" edge="1">
          <mxGeometry relative="1" as="geometry" />
        </mxCell>
        <mxCell id="oaU1He6_CLvsL4cnX-EE-94" style="edgeStyle=orthogonalEdgeStyle;rounded=0;orthogonalLoop=1;jettySize=auto;html=1;entryX=0.5;entryY=0;entryDx=0;entryDy=0;fillColor=#dae8fc;strokeColor=#6c8ebf;" parent="1" source="oaU1He6_CLvsL4cnX-EE-46" target="oaU1He6_CLvsL4cnX-EE-49" edge="1">
          <mxGeometry relative="1" as="geometry" />
        </mxCell>
        <mxCell id="oaU1He6_CLvsL4cnX-EE-46" value="Elektrolyser" style="rounded=0;whiteSpace=wrap;html=1;" parent="1" vertex="1">
          <mxGeometry x="440" y="510" width="120" height="60" as="geometry" />
        </mxCell>
        <mxCell id="oaU1He6_CLvsL4cnX-EE-82" style="edgeStyle=orthogonalEdgeStyle;rounded=0;orthogonalLoop=1;jettySize=auto;html=1;entryX=0.5;entryY=0;entryDx=0;entryDy=0;fillColor=#ffe6cc;strokeColor=#d79b00;" parent="1" source="oaU1He6_CLvsL4cnX-EE-47" target="oaU1He6_CLvsL4cnX-EE-44" edge="1">
          <mxGeometry relative="1" as="geometry" />
        </mxCell>
        <mxCell id="oaU1He6_CLvsL4cnX-EE-47" value="Hydrogen-based hybrid HPs" style="rounded=0;whiteSpace=wrap;html=1;" parent="1" vertex="1">
          <mxGeometry x="290" y="510" width="120" height="60" as="geometry" />
        </mxCell>
        <mxCell id="oaU1He6_CLvsL4cnX-EE-80" style="edgeStyle=orthogonalEdgeStyle;rounded=0;orthogonalLoop=1;jettySize=auto;html=1;entryX=0.5;entryY=0;entryDx=0;entryDy=0;fillColor=#d5e8d4;strokeColor=#82b366;" parent="1" source="oaU1He6_CLvsL4cnX-EE-48" target="oaU1He6_CLvsL4cnX-EE-46" edge="1">
          <mxGeometry relative="1" as="geometry">
            <mxPoint x="350" y="430" as="targetPoint" />
            <Array as="points">
              <mxPoint x="190" y="430" />
              <mxPoint x="190" y="380" />
              <mxPoint x="500" y="380" />
            </Array>
          </mxGeometry>
        </mxCell>
        <mxCell id="oaU1He6_CLvsL4cnX-EE-48" value="Wind turbine power" style="rounded=0;whiteSpace=wrap;html=1;" parent="1" vertex="1">
          <mxGeometry x="20" y="400" width="120" height="60" as="geometry" />
        </mxCell>
        <mxCell id="oaU1He6_CLvsL4cnX-EE-95" style="edgeStyle=orthogonalEdgeStyle;rounded=0;orthogonalLoop=1;jettySize=auto;html=1;entryX=0.75;entryY=0;entryDx=0;entryDy=0;fillColor=#d5e8d4;strokeColor=#82b366;" parent="1" source="oaU1He6_CLvsL4cnX-EE-49" target="oaU1He6_CLvsL4cnX-EE-44" edge="1">
          <mxGeometry relative="1" as="geometry" />
        </mxCell>
        <mxCell id="oaU1He6_CLvsL4cnX-EE-115" style="edgeStyle=orthogonalEdgeStyle;rounded=0;orthogonalLoop=1;jettySize=auto;html=1;exitX=0.5;exitY=1;exitDx=0;exitDy=0;entryX=1;entryY=0.25;entryDx=0;entryDy=0;fillColor=#ffe6cc;strokeColor=#d79b00;" parent="1" source="oaU1He6_CLvsL4cnX-EE-49" target="oaU1He6_CLvsL4cnX-EE-44" edge="1">
          <mxGeometry relative="1" as="geometry">
            <Array as="points">
              <mxPoint x="500" y="695" />
            </Array>
          </mxGeometry>
        </mxCell>
        <mxCell id="oaU1He6_CLvsL4cnX-EE-49" value="Hydrogen-based CHP&amp;nbsp;" style="rounded=0;whiteSpace=wrap;html=1;" parent="1" vertex="1">
          <mxGeometry x="440" y="610" width="120" height="60" as="geometry" />
        </mxCell>
        <mxCell id="oaU1He6_CLvsL4cnX-EE-51" value="&lt;font style=&quot;font-size: 15px;&quot;&gt;Thermal and electrical power&lt;/font&gt;" style="shape=note;whiteSpace=wrap;html=1;backgroundOutline=1;darkOpacity=0.05;" parent="1" vertex="1">
          <mxGeometry x="-300" y="120" width="140" height="150" as="geometry" />
        </mxCell>
        <mxCell id="oaU1He6_CLvsL4cnX-EE-52" style="edgeStyle=orthogonalEdgeStyle;rounded=0;orthogonalLoop=1;jettySize=auto;html=1;exitX=0.5;exitY=1;exitDx=0;exitDy=0;" parent="1" source="oaU1He6_CLvsL4cnX-EE-49" target="oaU1He6_CLvsL4cnX-EE-49" edge="1">
          <mxGeometry relative="1" as="geometry" />
        </mxCell>
        <mxCell id="oaU1He6_CLvsL4cnX-EE-81" style="edgeStyle=orthogonalEdgeStyle;rounded=0;orthogonalLoop=1;jettySize=auto;html=1;startArrow=classic;startFill=1;fillColor=#d5e8d4;strokeColor=#82b366;" parent="1" source="oaU1He6_CLvsL4cnX-EE-53" edge="1">
          <mxGeometry relative="1" as="geometry">
            <mxPoint x="290" y="380" as="targetPoint" />
          </mxGeometry>
        </mxCell>
        <mxCell id="oaU1He6_CLvsL4cnX-EE-53" value="Electrical Utility Grid&amp;nbsp;" style="rounded=0;whiteSpace=wrap;html=1;" parent="1" vertex="1">
          <mxGeometry x="230" y="150" width="120" height="60" as="geometry" />
        </mxCell>
        <mxCell id="oaU1He6_CLvsL4cnX-EE-87" style="edgeStyle=orthogonalEdgeStyle;rounded=0;orthogonalLoop=1;jettySize=auto;html=1;entryX=1;entryY=0.5;entryDx=0;entryDy=0;fillColor=#d5e8d4;strokeColor=#82b366;" parent="1" source="oaU1He6_CLvsL4cnX-EE-54" target="oaU1He6_CLvsL4cnX-EE-44" edge="1">
          <mxGeometry relative="1" as="geometry">
            <Array as="points">
              <mxPoint x="840" y="340" />
              <mxPoint x="840" y="710" />
            </Array>
          </mxGeometry>
        </mxCell>
        <mxCell id="oaU1He6_CLvsL4cnX-EE-91" style="edgeStyle=orthogonalEdgeStyle;rounded=0;orthogonalLoop=1;jettySize=auto;html=1;endArrow=none;endFill=0;startArrow=classic;startFill=1;fillColor=#d5e8d4;strokeColor=#82b366;" parent="1" source="oaU1He6_CLvsL4cnX-EE-54" edge="1">
          <mxGeometry relative="1" as="geometry">
            <mxPoint x="550" y="340" as="targetPoint" />
          </mxGeometry>
        </mxCell>
        <mxCell id="oaU1He6_CLvsL4cnX-EE-54" value="Batteries" style="rounded=0;whiteSpace=wrap;html=1;" parent="1" vertex="1">
          <mxGeometry x="640" y="310" width="120" height="60" as="geometry" />
        </mxCell>
        <mxCell id="oaU1He6_CLvsL4cnX-EE-92" style="edgeStyle=elbowEdgeStyle;rounded=0;orthogonalLoop=1;jettySize=auto;html=1;entryX=1;entryY=0.5;entryDx=0;entryDy=0;jumpStyle=arc;fillColor=#dae8fc;strokeColor=#6c8ebf;" parent="1" source="oaU1He6_CLvsL4cnX-EE-55" target="oaU1He6_CLvsL4cnX-EE-46" edge="1">
          <mxGeometry relative="1" as="geometry" />
        </mxCell>
        <mxCell id="oaU1He6_CLvsL4cnX-EE-106" style="edgeStyle=orthogonalEdgeStyle;rounded=0;orthogonalLoop=1;jettySize=auto;html=1;fillColor=#dae8fc;strokeColor=#6c8ebf;" parent="1" source="oaU1He6_CLvsL4cnX-EE-55" edge="1">
          <mxGeometry relative="1" as="geometry">
            <mxPoint x="760" y="780" as="targetPoint" />
            <Array as="points">
              <mxPoint x="1020" y="780" />
            </Array>
          </mxGeometry>
        </mxCell>
        <mxCell id="oaU1He6_CLvsL4cnX-EE-55" value="Hydrogen Utility Grid" style="rounded=0;whiteSpace=wrap;html=1;" parent="1" vertex="1">
          <mxGeometry x="960" y="510" width="120" height="60" as="geometry" />
        </mxCell>
        <mxCell id="oaU1He6_CLvsL4cnX-EE-79" style="edgeStyle=orthogonalEdgeStyle;rounded=0;orthogonalLoop=1;jettySize=auto;html=1;entryX=0.5;entryY=0;entryDx=0;entryDy=0;exitX=1;exitY=0.5;exitDx=0;exitDy=0;fillColor=#d5e8d4;strokeColor=#82b366;" parent="1" source="oaU1He6_CLvsL4cnX-EE-3" target="oaU1He6_CLvsL4cnX-EE-47" edge="1">
          <mxGeometry relative="1" as="geometry">
            <Array as="points">
              <mxPoint x="190" y="340" />
              <mxPoint x="190" y="380" />
              <mxPoint x="350" y="380" />
            </Array>
          </mxGeometry>
        </mxCell>
        <mxCell id="oaU1He6_CLvsL4cnX-EE-101" value="Microgrid and EMS" style="text;html=1;align=center;verticalAlign=middle;resizable=0;points=[];autosize=1;strokeColor=none;fillColor=none;fontStyle=1;fontColor=#999999;" parent="1" vertex="1">
          <mxGeometry x="10" y="880" width="130" height="30" as="geometry" />
        </mxCell>
        <mxCell id="oaU1He6_CLvsL4cnX-EE-105" style="edgeStyle=orthogonalEdgeStyle;rounded=0;orthogonalLoop=1;jettySize=auto;html=1;entryX=1;entryY=0.75;entryDx=0;entryDy=0;fillColor=#d5e8d4;strokeColor=#82b366;" parent="1" target="oaU1He6_CLvsL4cnX-EE-44" edge="1">
          <mxGeometry relative="1" as="geometry">
            <mxPoint x="640" y="780" as="sourcePoint" />
            <Array as="points">
              <mxPoint x="450" y="780" />
              <mxPoint x="450" y="725" />
            </Array>
          </mxGeometry>
        </mxCell>
        <mxCell id="oaU1He6_CLvsL4cnX-EE-110" style="edgeStyle=orthogonalEdgeStyle;rounded=0;orthogonalLoop=1;jettySize=auto;html=1;endArrow=none;endFill=0;startArrow=classic;startFill=1;fillColor=#dae8fc;strokeColor=#6c8ebf;" parent="1" source="oaU1He6_CLvsL4cnX-EE-107" edge="1">
          <mxGeometry relative="1" as="geometry">
            <mxPoint x="1020" y="780" as="targetPoint" />
          </mxGeometry>
        </mxCell>
        <mxCell id="oaU1He6_CLvsL4cnX-EE-111" style="edgeStyle=orthogonalEdgeStyle;rounded=0;orthogonalLoop=1;jettySize=auto;html=1;endArrow=none;endFill=0;fillColor=#d5e8d4;strokeColor=#82b366;" parent="1" source="oaU1He6_CLvsL4cnX-EE-107" edge="1">
          <mxGeometry relative="1" as="geometry">
            <mxPoint x="450" y="780" as="targetPoint" />
          </mxGeometry>
        </mxCell>
        <mxCell id="oaU1He6_CLvsL4cnX-EE-107" value="EV Fuell cell" style="rounded=0;whiteSpace=wrap;html=1;" parent="1" vertex="1">
          <mxGeometry x="640" y="845" width="120" height="60" as="geometry" />
        </mxCell>
        <mxCell id="oaU1He6_CLvsL4cnX-EE-113" style="edgeStyle=orthogonalEdgeStyle;rounded=0;orthogonalLoop=1;jettySize=auto;html=1;entryX=0;entryY=0.25;entryDx=0;entryDy=0;fillColor=#ffe6cc;strokeColor=#d79b00;" parent="1" source="oaU1He6_CLvsL4cnX-EE-112" target="oaU1He6_CLvsL4cnX-EE-44" edge="1">
          <mxGeometry relative="1" as="geometry">
            <Array as="points">
              <mxPoint x="190" y="520" />
              <mxPoint x="190" y="695" />
            </Array>
          </mxGeometry>
        </mxCell>
        <mxCell id="oaU1He6_CLvsL4cnX-EE-112" value="Geothermal power" style="rounded=0;whiteSpace=wrap;html=1;" parent="1" vertex="1">
          <mxGeometry x="20" y="490" width="120" height="60" as="geometry" />
        </mxCell>
        <mxCell id="oaU1He6_CLvsL4cnX-EE-114" style="edgeStyle=orthogonalEdgeStyle;rounded=0;orthogonalLoop=1;jettySize=auto;html=1;fillColor=#d5e8d4;strokeColor=#82b366;exitX=0.25;exitY=1;exitDx=0;exitDy=0;" parent="1" source="oaU1He6_CLvsL4cnX-EE-44" edge="1">
          <mxGeometry relative="1" as="geometry">
            <mxPoint x="290" y="730" as="targetPoint" />
            <Array as="points">
              <mxPoint x="320" y="760" />
              <mxPoint x="270" y="760" />
              <mxPoint x="270" y="730" />
            </Array>
          </mxGeometry>
        </mxCell>
        <mxCell id="oaU1He6_CLvsL4cnX-EE-116" style="edgeStyle=orthogonalEdgeStyle;rounded=0;orthogonalLoop=1;jettySize=auto;html=1;entryX=0;entryY=0.5;entryDx=0;entryDy=0;exitX=0.5;exitY=1;exitDx=0;exitDy=0;fillColor=#ffe6cc;strokeColor=#d79b00;" parent="1" source="oaU1He6_CLvsL4cnX-EE-44" target="oaU1He6_CLvsL4cnX-EE-44" edge="1">
          <mxGeometry relative="1" as="geometry">
            <Array as="points">
              <mxPoint x="350" y="780" />
              <mxPoint x="250" y="780" />
              <mxPoint x="250" y="710" />
            </Array>
          </mxGeometry>
        </mxCell>
      </root>
    </mxGraphModel>
  </diagram>
  <diagram id="P_DjusoZZFqmXKCiZyIm" name="Data cleaning">
    <mxGraphModel dx="2026" dy="1161" grid="1" gridSize="10" guides="1" tooltips="1" connect="1" arrows="1" fold="1" page="1" pageScale="1" pageWidth="850" pageHeight="1100" math="0" shadow="0">
      <root>
        <mxCell id="0" />
        <mxCell id="1" parent="0" />
        <mxCell id="ESs10Zc4WpIzcaTW8T5w-4" value="" style="edgeStyle=orthogonalEdgeStyle;rounded=0;orthogonalLoop=1;jettySize=auto;html=1;" parent="1" source="ESs10Zc4WpIzcaTW8T5w-1" target="ESs10Zc4WpIzcaTW8T5w-3" edge="1">
          <mxGeometry relative="1" as="geometry" />
        </mxCell>
        <mxCell id="ESs10Zc4WpIzcaTW8T5w-1" value="&lt;b&gt;Datasets:&lt;/b&gt; BAG:panden (Buildings),&amp;nbsp;Districts and neighborhoods, Postal codes, Energy-related Enriched BAG, Energy Labels, Building types.&amp;nbsp;" style="shape=cube;whiteSpace=wrap;html=1;boundedLbl=1;backgroundOutline=1;darkOpacity=0.05;darkOpacity2=0.1;" parent="1" vertex="1">
          <mxGeometry x="10" y="300" width="190" height="120" as="geometry" />
        </mxCell>
        <mxCell id="ESs10Zc4WpIzcaTW8T5w-3" value="&lt;b&gt;Merged Shapefile&lt;/b&gt; containing &lt;br&gt;all relevant information for &lt;br&gt;the entities in the optimization case studies&amp;nbsp;(n = 658)&amp;nbsp;&amp;nbsp;" style="shape=cube;whiteSpace=wrap;html=1;boundedLbl=1;backgroundOutline=1;darkOpacity=0.05;darkOpacity2=0.1;" parent="1" vertex="1">
          <mxGeometry x="290" y="300" width="190" height="120" as="geometry" />
        </mxCell>
        <mxCell id="ESs10Zc4WpIzcaTW8T5w-9" style="edgeStyle=orthogonalEdgeStyle;rounded=0;orthogonalLoop=1;jettySize=auto;html=1;" parent="1" source="ESs10Zc4WpIzcaTW8T5w-7" edge="1">
          <mxGeometry relative="1" as="geometry">
            <mxPoint x="245" y="360" as="targetPoint" />
          </mxGeometry>
        </mxCell>
        <mxCell id="ESs10Zc4WpIzcaTW8T5w-7" value="&lt;b&gt;Geoprocesses:&amp;nbsp;&lt;br&gt;&lt;/b&gt;Clip, Spatial joins, Intersections, Type &lt;br&gt;conversions" style="ellipse;whiteSpace=wrap;html=1;" parent="1" vertex="1">
          <mxGeometry x="160" y="440" width="170" height="100" as="geometry" />
        </mxCell>
        <mxCell id="ESs10Zc4WpIzcaTW8T5w-11" style="edgeStyle=orthogonalEdgeStyle;rounded=0;orthogonalLoop=1;jettySize=auto;html=1;" parent="1" source="ESs10Zc4WpIzcaTW8T5w-10" edge="1">
          <mxGeometry relative="1" as="geometry">
            <mxPoint x="245" y="360" as="targetPoint" />
          </mxGeometry>
        </mxCell>
        <mxCell id="ESs10Zc4WpIzcaTW8T5w-10" value="&lt;b&gt;Data Selection: &lt;/b&gt;&lt;br&gt;Removing extraneous &lt;br&gt;entities&amp;nbsp;" style="ellipse;whiteSpace=wrap;html=1;" parent="1" vertex="1">
          <mxGeometry x="160" y="210" width="170" height="70" as="geometry" />
        </mxCell>
        <mxCell id="ESs10Zc4WpIzcaTW8T5w-14" style="edgeStyle=orthogonalEdgeStyle;rounded=0;orthogonalLoop=1;jettySize=auto;html=1;" parent="1" source="ESs10Zc4WpIzcaTW8T5w-12" target="ESs10Zc4WpIzcaTW8T5w-15" edge="1">
          <mxGeometry relative="1" as="geometry">
            <mxPoint x="760" y="360" as="targetPoint" />
          </mxGeometry>
        </mxCell>
        <mxCell id="ESs10Zc4WpIzcaTW8T5w-12" value="SQL queries" style="strokeWidth=2;html=1;shape=mxgraph.flowchart.stored_data;whiteSpace=wrap;" parent="1" vertex="1">
          <mxGeometry x="570" y="330" width="100" height="60" as="geometry" />
        </mxCell>
        <mxCell id="ESs10Zc4WpIzcaTW8T5w-15" value="Categorization:&amp;nbsp;&lt;br&gt;&lt;br&gt;C1: Select * Buildings ...&amp;nbsp; (n =??)&lt;br&gt;&lt;div&gt;&lt;br&gt;&lt;/div&gt;" style="whiteSpace=wrap;html=1;aspect=fixed;" parent="1" vertex="1">
          <mxGeometry x="720" y="280" width="160" height="160" as="geometry" />
        </mxCell>
        <mxCell id="ESs10Zc4WpIzcaTW8T5w-16" style="edgeStyle=orthogonalEdgeStyle;rounded=0;orthogonalLoop=1;jettySize=auto;html=1;entryX=1.014;entryY=0.506;entryDx=0;entryDy=0;entryPerimeter=0;" parent="1" source="ESs10Zc4WpIzcaTW8T5w-12" target="ESs10Zc4WpIzcaTW8T5w-3" edge="1">
          <mxGeometry relative="1" as="geometry" />
        </mxCell>
      </root>
    </mxGraphModel>
  </diagram>
  <diagram id="fsWz96Rw86OD7Kd62Exa" name="Optimization">
    <mxGraphModel dx="6094" dy="2387" grid="0" gridSize="10" guides="1" tooltips="1" connect="1" arrows="1" fold="1" page="0" pageScale="1" pageWidth="850" pageHeight="1100" math="0" shadow="0">
      <root>
        <mxCell id="0" />
        <mxCell id="1" parent="0" />
        <mxCell id="elY4dSQkRPukDRElFY_X-1" value="&lt;font style=&quot;font-size: 18px;&quot;&gt;&lt;b&gt;Objectives:&lt;/b&gt;&lt;br&gt;&lt;ul style=&quot;&quot;&gt;&lt;li style=&quot;&quot;&gt;&lt;font style=&quot;font-size: 18px;&quot;&gt;Minimize the Main Grid Connection&lt;/font&gt;&lt;/li&gt;&lt;li style=&quot;&quot;&gt;&lt;font style=&quot;font-size: 18px;&quot;&gt;Minimize the energy costs&amp;nbsp;&lt;/font&gt;&lt;/li&gt;&lt;li style=&quot;&quot;&gt;&lt;font style=&quot;font-size: 18px;&quot;&gt;Maximize Renewable energy share&lt;b style=&quot;font-weight: bold;&quot;&gt;&amp;nbsp;&amp;nbsp;&lt;/b&gt;&lt;/font&gt;&lt;/li&gt;&lt;/ul&gt;&lt;/font&gt;" style="ellipse;whiteSpace=wrap;html=1;" parent="1" vertex="1">
          <mxGeometry x="-1048" y="-193" width="451" height="165" as="geometry" />
        </mxCell>
        <mxCell id="elY4dSQkRPukDRElFY_X-3" style="edgeStyle=none;curved=1;rounded=0;orthogonalLoop=1;jettySize=auto;html=1;fontSize=12;startSize=8;endSize=8;" parent="1" source="elY4dSQkRPukDRElFY_X-2" target="elY4dSQkRPukDRElFY_X-1" edge="1">
          <mxGeometry relative="1" as="geometry" />
        </mxCell>
        <mxCell id="elY4dSQkRPukDRElFY_X-7" value="" style="edgeStyle=none;curved=1;rounded=0;orthogonalLoop=1;jettySize=auto;html=1;fontSize=12;startSize=8;endSize=8;" parent="1" source="elY4dSQkRPukDRElFY_X-2" target="elY4dSQkRPukDRElFY_X-6" edge="1">
          <mxGeometry relative="1" as="geometry" />
        </mxCell>
        <mxCell id="elY4dSQkRPukDRElFY_X-9" value="" style="edgeStyle=none;curved=1;rounded=0;orthogonalLoop=1;jettySize=auto;html=1;fontSize=12;startSize=8;endSize=8;" parent="1" source="elY4dSQkRPukDRElFY_X-2" target="elY4dSQkRPukDRElFY_X-8" edge="1">
          <mxGeometry relative="1" as="geometry" />
        </mxCell>
        <mxCell id="elY4dSQkRPukDRElFY_X-21" value="" style="edgeStyle=none;curved=1;rounded=0;orthogonalLoop=1;jettySize=auto;html=1;fontSize=12;startSize=8;endSize=8;" parent="1" source="elY4dSQkRPukDRElFY_X-2" target="elY4dSQkRPukDRElFY_X-20" edge="1">
          <mxGeometry relative="1" as="geometry" />
        </mxCell>
        <mxCell id="elY4dSQkRPukDRElFY_X-2" value="&lt;font face=&quot;Verdana&quot; style=&quot;font-size: 20px;&quot;&gt;Multi objective RL&lt;/font&gt;" style="ellipse;whiteSpace=wrap;html=1;" parent="1" vertex="1">
          <mxGeometry x="-289" y="-318" width="451" height="165" as="geometry" />
        </mxCell>
        <mxCell id="elY4dSQkRPukDRElFY_X-4" value="&lt;font face=&quot;Verdana&quot; style=&quot;font-size: 22px;&quot;&gt;Reinforcement Learning&lt;/font&gt;" style="text;html=1;align=center;verticalAlign=middle;whiteSpace=wrap;rounded=0;fontSize=16;" parent="1" vertex="1">
          <mxGeometry x="-56" y="-712" width="471" height="117" as="geometry" />
        </mxCell>
        <mxCell id="elY4dSQkRPukDRElFY_X-6" value="(Deep) Q learning&amp;nbsp;" style="ellipse;whiteSpace=wrap;html=1;" parent="1" vertex="1">
          <mxGeometry x="33" y="-43" width="215" height="133" as="geometry" />
        </mxCell>
        <mxCell id="elY4dSQkRPukDRElFY_X-8" value="Multi Agent RL&amp;nbsp;" style="ellipse;whiteSpace=wrap;html=1;" parent="1" vertex="1">
          <mxGeometry x="222" y="-133" width="202" height="108" as="geometry" />
        </mxCell>
        <mxCell id="elY4dSQkRPukDRElFY_X-59" style="edgeStyle=none;curved=1;rounded=0;orthogonalLoop=1;jettySize=auto;html=1;fontSize=12;startSize=8;endSize=8;" parent="1" source="elY4dSQkRPukDRElFY_X-10" target="elY4dSQkRPukDRElFY_X-2" edge="1">
          <mxGeometry relative="1" as="geometry" />
        </mxCell>
        <mxCell id="elY4dSQkRPukDRElFY_X-10" value="MDP Framework&amp;nbsp;" style="ellipse;whiteSpace=wrap;html=1;" parent="1" vertex="1">
          <mxGeometry x="-421" y="-401" width="233" height="52" as="geometry" />
        </mxCell>
        <mxCell id="elY4dSQkRPukDRElFY_X-11" value="SARSA&amp;nbsp;" style="ellipse;whiteSpace=wrap;html=1;" parent="1" vertex="1">
          <mxGeometry x="-209" y="33" width="233" height="52" as="geometry" />
        </mxCell>
        <mxCell id="elY4dSQkRPukDRElFY_X-12" value="LSPI" style="ellipse;whiteSpace=wrap;html=1;" parent="1" vertex="1">
          <mxGeometry x="-141" y="90" width="233" height="52" as="geometry" />
        </mxCell>
        <mxCell id="elY4dSQkRPukDRElFY_X-13" value="Fitted Q iteration" style="ellipse;whiteSpace=wrap;html=1;" parent="1" vertex="1">
          <mxGeometry x="-62" y="147" width="233" height="52" as="geometry" />
        </mxCell>
        <mxCell id="elY4dSQkRPukDRElFY_X-16" value="&lt;span style=&quot;color: rgb(51, 51, 51); font-size: 18px; text-align: start; background-color: rgb(252, 252, 252);&quot;&gt;&lt;font face=&quot;Verdana&quot;&gt;On the one hand, the recent years have witnessed a rapid proliferation of renewable generation and distributed energy resources (DERs), including solar energy, wind power, energy storage, responsive demands, electric vehicles, and so forth.&lt;/font&gt;&lt;/span&gt;" style="text;html=1;align=center;verticalAlign=middle;whiteSpace=wrap;rounded=0;fontSize=16;" parent="1" vertex="1">
          <mxGeometry x="-113" y="-577" width="580" height="30" as="geometry" />
        </mxCell>
        <mxCell id="elY4dSQkRPukDRElFY_X-60" style="edgeStyle=none;curved=1;rounded=0;orthogonalLoop=1;jettySize=auto;html=1;entryX=0.5;entryY=0;entryDx=0;entryDy=0;fontSize=12;startSize=8;endSize=8;" parent="1" source="elY4dSQkRPukDRElFY_X-17" target="elY4dSQkRPukDRElFY_X-2" edge="1">
          <mxGeometry relative="1" as="geometry" />
        </mxCell>
        <mxCell id="elY4dSQkRPukDRElFY_X-17" value="Model Free" style="ellipse;whiteSpace=wrap;html=1;" parent="1" vertex="1">
          <mxGeometry x="-178" y="-441" width="233" height="52" as="geometry" />
        </mxCell>
        <mxCell id="elY4dSQkRPukDRElFY_X-61" style="edgeStyle=none;curved=1;rounded=0;orthogonalLoop=1;jettySize=auto;html=1;entryX=1;entryY=0;entryDx=0;entryDy=0;fontSize=12;startSize=8;endSize=8;" parent="1" source="elY4dSQkRPukDRElFY_X-18" target="elY4dSQkRPukDRElFY_X-2" edge="1">
          <mxGeometry relative="1" as="geometry" />
        </mxCell>
        <mxCell id="elY4dSQkRPukDRElFY_X-18" value="Value based&amp;nbsp;" style="ellipse;whiteSpace=wrap;html=1;" parent="1" vertex="1">
          <mxGeometry x="15" y="-389" width="233" height="52" as="geometry" />
        </mxCell>
        <mxCell id="elY4dSQkRPukDRElFY_X-19" value="&lt;a href=&quot;https://link.springer.com/chapter/10.1007/978-3-031-29724-3_10#Sec9&quot;&gt;Reinforcement Learning for Decision-Making and Control in Power Systems | SpringerLink&lt;/a&gt;" style="text;html=1;align=center;verticalAlign=middle;resizable=0;points=[];autosize=1;strokeColor=none;fillColor=none;fontSize=16;" parent="1" vertex="1">
          <mxGeometry x="-123" y="-635" width="657" height="31" as="geometry" />
        </mxCell>
        <mxCell id="elY4dSQkRPukDRElFY_X-25" value="" style="edgeStyle=none;curved=1;rounded=0;orthogonalLoop=1;jettySize=auto;html=1;fontSize=12;startSize=8;endSize=8;" parent="1" source="elY4dSQkRPukDRElFY_X-20" target="elY4dSQkRPukDRElFY_X-24" edge="1">
          <mxGeometry relative="1" as="geometry" />
        </mxCell>
        <mxCell id="elY4dSQkRPukDRElFY_X-27" value="" style="edgeStyle=none;curved=1;rounded=0;orthogonalLoop=1;jettySize=auto;html=1;fontSize=12;startSize=8;endSize=8;" parent="1" source="elY4dSQkRPukDRElFY_X-20" target="elY4dSQkRPukDRElFY_X-26" edge="1">
          <mxGeometry relative="1" as="geometry" />
        </mxCell>
        <mxCell id="elY4dSQkRPukDRElFY_X-29" value="" style="edgeStyle=none;curved=1;rounded=0;orthogonalLoop=1;jettySize=auto;html=1;fontSize=12;startSize=8;endSize=8;" parent="1" source="elY4dSQkRPukDRElFY_X-20" target="elY4dSQkRPukDRElFY_X-28" edge="1">
          <mxGeometry relative="1" as="geometry" />
        </mxCell>
        <mxCell id="elY4dSQkRPukDRElFY_X-20" value="&lt;font style=&quot;font-size: 18px;&quot;&gt;State Action and Environment&amp;nbsp;&lt;/font&gt;" style="ellipse;whiteSpace=wrap;html=1;" parent="1" vertex="1">
          <mxGeometry x="-720" y="209" width="451" height="165" as="geometry" />
        </mxCell>
        <mxCell id="elY4dSQkRPukDRElFY_X-32" value="" style="edgeStyle=none;curved=1;rounded=0;orthogonalLoop=1;jettySize=auto;html=1;fontSize=12;startSize=8;endSize=8;" parent="1" source="elY4dSQkRPukDRElFY_X-24" target="elY4dSQkRPukDRElFY_X-31" edge="1">
          <mxGeometry relative="1" as="geometry" />
        </mxCell>
        <mxCell id="elY4dSQkRPukDRElFY_X-34" value="" style="edgeStyle=none;curved=1;rounded=0;orthogonalLoop=1;jettySize=auto;html=1;fontSize=12;startSize=8;endSize=8;" parent="1" source="elY4dSQkRPukDRElFY_X-24" target="elY4dSQkRPukDRElFY_X-33" edge="1">
          <mxGeometry relative="1" as="geometry" />
        </mxCell>
        <mxCell id="elY4dSQkRPukDRElFY_X-36" value="" style="edgeStyle=none;curved=1;rounded=0;orthogonalLoop=1;jettySize=auto;html=1;fontSize=12;startSize=8;endSize=8;" parent="1" source="elY4dSQkRPukDRElFY_X-24" target="elY4dSQkRPukDRElFY_X-35" edge="1">
          <mxGeometry relative="1" as="geometry" />
        </mxCell>
        <mxCell id="elY4dSQkRPukDRElFY_X-50" value="" style="edgeStyle=none;curved=1;rounded=0;orthogonalLoop=1;jettySize=auto;html=1;fontSize=12;startSize=8;endSize=8;" parent="1" source="elY4dSQkRPukDRElFY_X-24" target="elY4dSQkRPukDRElFY_X-49" edge="1">
          <mxGeometry relative="1" as="geometry" />
        </mxCell>
        <mxCell id="elY4dSQkRPukDRElFY_X-24" value="DERs" style="ellipse;whiteSpace=wrap;html=1;" parent="1" vertex="1">
          <mxGeometry x="-756" y="561" width="180" height="91" as="geometry" />
        </mxCell>
        <mxCell id="elY4dSQkRPukDRElFY_X-40" style="edgeStyle=none;curved=1;rounded=0;orthogonalLoop=1;jettySize=auto;html=1;fontSize=12;startSize=8;endSize=8;" parent="1" source="elY4dSQkRPukDRElFY_X-26" target="elY4dSQkRPukDRElFY_X-39" edge="1">
          <mxGeometry relative="1" as="geometry" />
        </mxCell>
        <mxCell id="elY4dSQkRPukDRElFY_X-41" style="edgeStyle=none;curved=1;rounded=0;orthogonalLoop=1;jettySize=auto;html=1;entryX=1;entryY=0;entryDx=0;entryDy=0;fontSize=12;startSize=8;endSize=8;" parent="1" source="elY4dSQkRPukDRElFY_X-26" target="elY4dSQkRPukDRElFY_X-38" edge="1">
          <mxGeometry relative="1" as="geometry" />
        </mxCell>
        <mxCell id="elY4dSQkRPukDRElFY_X-42" style="edgeStyle=none;curved=1;rounded=0;orthogonalLoop=1;jettySize=auto;html=1;entryX=1;entryY=0.5;entryDx=0;entryDy=0;fontSize=12;startSize=8;endSize=8;" parent="1" source="elY4dSQkRPukDRElFY_X-26" target="elY4dSQkRPukDRElFY_X-37" edge="1">
          <mxGeometry relative="1" as="geometry" />
        </mxCell>
        <mxCell id="elY4dSQkRPukDRElFY_X-58" value="" style="edgeStyle=none;curved=1;rounded=0;orthogonalLoop=1;jettySize=auto;html=1;fontSize=12;startSize=8;endSize=8;" parent="1" source="elY4dSQkRPukDRElFY_X-26" target="elY4dSQkRPukDRElFY_X-57" edge="1">
          <mxGeometry relative="1" as="geometry" />
        </mxCell>
        <mxCell id="elY4dSQkRPukDRElFY_X-26" value="Loads" style="ellipse;whiteSpace=wrap;html=1;" parent="1" vertex="1">
          <mxGeometry x="-1391" y="708" width="188" height="88" as="geometry" />
        </mxCell>
        <mxCell id="elY4dSQkRPukDRElFY_X-46" style="edgeStyle=none;curved=1;rounded=0;orthogonalLoop=1;jettySize=auto;html=1;entryX=1;entryY=0.5;entryDx=0;entryDy=0;fontSize=12;startSize=8;endSize=8;" parent="1" source="elY4dSQkRPukDRElFY_X-28" target="elY4dSQkRPukDRElFY_X-45" edge="1">
          <mxGeometry relative="1" as="geometry" />
        </mxCell>
        <mxCell id="elY4dSQkRPukDRElFY_X-47" style="edgeStyle=none;curved=1;rounded=0;orthogonalLoop=1;jettySize=auto;html=1;entryX=1;entryY=0.5;entryDx=0;entryDy=0;fontSize=12;startSize=8;endSize=8;" parent="1" source="elY4dSQkRPukDRElFY_X-28" target="elY4dSQkRPukDRElFY_X-44" edge="1">
          <mxGeometry relative="1" as="geometry" />
        </mxCell>
        <mxCell id="elY4dSQkRPukDRElFY_X-48" style="edgeStyle=none;curved=1;rounded=0;orthogonalLoop=1;jettySize=auto;html=1;entryX=1;entryY=1;entryDx=0;entryDy=0;fontSize=12;startSize=8;endSize=8;" parent="1" source="elY4dSQkRPukDRElFY_X-28" target="elY4dSQkRPukDRElFY_X-43" edge="1">
          <mxGeometry relative="1" as="geometry" />
        </mxCell>
        <mxCell id="elY4dSQkRPukDRElFY_X-56" value="" style="edgeStyle=none;curved=1;rounded=0;orthogonalLoop=1;jettySize=auto;html=1;fontSize=12;startSize=8;endSize=8;" parent="1" source="elY4dSQkRPukDRElFY_X-28" target="elY4dSQkRPukDRElFY_X-55" edge="1">
          <mxGeometry relative="1" as="geometry" />
        </mxCell>
        <mxCell id="elY4dSQkRPukDRElFY_X-28" value="Batteries" style="ellipse;whiteSpace=wrap;html=1;" parent="1" vertex="1">
          <mxGeometry x="-1097" y="335" width="186" height="90" as="geometry" />
        </mxCell>
        <mxCell id="elY4dSQkRPukDRElFY_X-31" value="State:&amp;nbsp;" style="ellipse;whiteSpace=wrap;html=1;" parent="1" vertex="1">
          <mxGeometry x="-932" y="762" width="180" height="91" as="geometry" />
        </mxCell>
        <mxCell id="elY4dSQkRPukDRElFY_X-33" value="Action:&amp;nbsp;" style="ellipse;whiteSpace=wrap;html=1;" parent="1" vertex="1">
          <mxGeometry x="-728" y="800" width="180" height="91" as="geometry" />
        </mxCell>
        <mxCell id="elY4dSQkRPukDRElFY_X-35" value="Environment" style="ellipse;whiteSpace=wrap;html=1;" parent="1" vertex="1">
          <mxGeometry x="-537" y="743" width="180" height="91" as="geometry" />
        </mxCell>
        <mxCell id="elY4dSQkRPukDRElFY_X-37" value="&lt;ul style=&quot;border: 0px solid rgb(227, 227, 227); box-sizing: border-box; --tw-border-spacing-x: 0; --tw-border-spacing-y: 0; --tw-translate-x: 0; --tw-translate-y: 0; --tw-rotate: 0; --tw-skew-x: 0; --tw-skew-y: 0; --tw-scale-x: 1; --tw-scale-y: 1; --tw-pan-x: ; --tw-pan-y: ; --tw-pinch-zoom: ; --tw-scroll-snap-strictness: proximity; --tw-gradient-from-position: ; --tw-gradient-via-position: ; --tw-gradient-to-position: ; --tw-ordinal: ; --tw-slashed-zero: ; --tw-numeric-figure: ; --tw-numeric-spacing: ; --tw-numeric-fraction: ; --tw-ring-inset: ; --tw-ring-offset-width: 0px; --tw-ring-offset-color: #fff; --tw-ring-color: rgba(69,89,164,.5); --tw-ring-offset-shadow: 0 0 transparent; --tw-ring-shadow: 0 0 transparent; --tw-shadow: 0 0 transparent; --tw-shadow-colored: 0 0 transparent; --tw-blur: ; --tw-brightness: ; --tw-contrast: ; --tw-grayscale: ; --tw-hue-rotate: ; --tw-invert: ; --tw-saturate: ; --tw-sepia: ; --tw-drop-shadow: ; --tw-backdrop-blur: ; --tw-backdrop-brightness: ; --tw-backdrop-contrast: ; --tw-backdrop-grayscale: ; --tw-backdrop-hue-rotate: ; --tw-backdrop-invert: ; --tw-backdrop-opacity: ; --tw-backdrop-saturate: ; --tw-backdrop-sepia: ; list-style-position: initial; list-style-image: initial; margin: 0px 0px 0px 1rem; padding: 0px; display: flex; flex-direction: column; color: rgb(13, 13, 13); font-family: Söhne, ui-sans-serif, system-ui, -apple-system, &amp;quot;Segoe UI&amp;quot;, Roboto, Ubuntu, Cantarell, &amp;quot;Noto Sans&amp;quot;, sans-serif, &amp;quot;Helvetica Neue&amp;quot;, Arial, &amp;quot;Apple Color Emoji&amp;quot;, &amp;quot;Segoe UI Emoji&amp;quot;, &amp;quot;Segoe UI Symbol&amp;quot;, &amp;quot;Noto Color Emoji&amp;quot;; font-size: 16px; white-space-collapse: preserve;&quot;&gt;&lt;li style=&quot;border: 0px solid rgb(227, 227, 227); box-sizing: border-box; --tw-border-spacing-x: 0; --tw-border-spacing-y: 0; --tw-translate-x: 0; --tw-translate-y: 0; --tw-rotate: 0; --tw-skew-x: 0; --tw-skew-y: 0; --tw-scale-x: 1; --tw-scale-y: 1; --tw-pan-x: ; --tw-pan-y: ; --tw-pinch-zoom: ; --tw-scroll-snap-strictness: proximity; --tw-gradient-from-position: ; --tw-gradient-via-position: ; --tw-gradient-to-position: ; --tw-ordinal: ; --tw-slashed-zero: ; --tw-numeric-figure: ; --tw-numeric-spacing: ; --tw-numeric-fraction: ; --tw-ring-inset: ; --tw-ring-offset-width: 0px; --tw-ring-offset-color: #fff; --tw-ring-color: rgba(69,89,164,.5); --tw-ring-offset-shadow: 0 0 transparent; --tw-ring-shadow: 0 0 transparent; --tw-shadow: 0 0 transparent; --tw-shadow-colored: 0 0 transparent; --tw-blur: ; --tw-brightness: ; --tw-contrast: ; --tw-grayscale: ; --tw-hue-rotate: ; --tw-invert: ; --tw-saturate: ; --tw-sepia: ; --tw-drop-shadow: ; --tw-backdrop-blur: ; --tw-backdrop-brightness: ; --tw-backdrop-contrast: ; --tw-backdrop-grayscale: ; --tw-backdrop-hue-rotate: ; --tw-backdrop-invert: ; --tw-backdrop-opacity: ; --tw-backdrop-saturate: ; --tw-backdrop-sepia: ; margin: 0px; padding-left: 0.375em; display: block; min-height: 28px;&quot;&gt;&lt;br&gt;&lt;/li&gt;&lt;li style=&quot;border: 0px solid rgb(227, 227, 227); box-sizing: border-box; --tw-border-spacing-x: 0; --tw-border-spacing-y: 0; --tw-translate-x: 0; --tw-translate-y: 0; --tw-rotate: 0; --tw-skew-x: 0; --tw-skew-y: 0; --tw-scale-x: 1; --tw-scale-y: 1; --tw-pan-x: ; --tw-pan-y: ; --tw-pinch-zoom: ; --tw-scroll-snap-strictness: proximity; --tw-gradient-from-position: ; --tw-gradient-via-position: ; --tw-gradient-to-position: ; --tw-ordinal: ; --tw-slashed-zero: ; --tw-numeric-figure: ; --tw-numeric-spacing: ; --tw-numeric-fraction: ; --tw-ring-inset: ; --tw-ring-offset-width: 0px; --tw-ring-offset-color: #fff; --tw-ring-color: rgba(69,89,164,.5); --tw-ring-offset-shadow: 0 0 transparent; --tw-ring-shadow: 0 0 transparent; --tw-shadow: 0 0 transparent; --tw-shadow-colored: 0 0 transparent; --tw-blur: ; --tw-brightness: ; --tw-contrast: ; --tw-grayscale: ; --tw-hue-rotate: ; --tw-invert: ; --tw-saturate: ; --tw-sepia: ; --tw-drop-shadow: ; --tw-backdrop-blur: ; --tw-backdrop-brightness: ; --tw-backdrop-contrast: ; --tw-backdrop-grayscale: ; --tw-backdrop-hue-rotate: ; --tw-backdrop-invert: ; --tw-backdrop-opacity: ; --tw-backdrop-saturate: ; --tw-backdrop-sepia: ; margin: 0px; padding-left: 0.375em; display: block; min-height: 28px;&quot;&gt;Energy demand; &lt;span style=&quot;background-color: initial;&quot;&gt;The current energy consumption requirements of the loads.&lt;/span&gt;&lt;/li&gt;&lt;/ul&gt;&lt;ul style=&quot;border: 0px solid rgb(227, 227, 227); box-sizing: border-box; --tw-border-spacing-x: 0; --tw-border-spacing-y: 0; --tw-translate-x: 0; --tw-translate-y: 0; --tw-rotate: 0; --tw-skew-x: 0; --tw-skew-y: 0; --tw-scale-x: 1; --tw-scale-y: 1; --tw-pan-x: ; --tw-pan-y: ; --tw-pinch-zoom: ; --tw-scroll-snap-strictness: proximity; --tw-gradient-from-position: ; --tw-gradient-via-position: ; --tw-gradient-to-position: ; --tw-ordinal: ; --tw-slashed-zero: ; --tw-numeric-figure: ; --tw-numeric-spacing: ; --tw-numeric-fraction: ; --tw-ring-inset: ; --tw-ring-offset-width: 0px; --tw-ring-offset-color: #fff; --tw-ring-color: rgba(69,89,164,.5); --tw-ring-offset-shadow: 0 0 transparent; --tw-ring-shadow: 0 0 transparent; --tw-shadow: 0 0 transparent; --tw-shadow-colored: 0 0 transparent; --tw-blur: ; --tw-brightness: ; --tw-contrast: ; --tw-grayscale: ; --tw-hue-rotate: ; --tw-invert: ; --tw-saturate: ; --tw-sepia: ; --tw-drop-shadow: ; --tw-backdrop-blur: ; --tw-backdrop-brightness: ; --tw-backdrop-contrast: ; --tw-backdrop-grayscale: ; --tw-backdrop-hue-rotate: ; --tw-backdrop-invert: ; --tw-backdrop-opacity: ; --tw-backdrop-saturate: ; --tw-backdrop-sepia: ; list-style-position: initial; list-style-image: initial; margin: 0px 0px 0px 1rem; padding: 0px; display: flex; flex-direction: column; color: rgb(13, 13, 13); font-family: Söhne, ui-sans-serif, system-ui, -apple-system, &amp;quot;Segoe UI&amp;quot;, Roboto, Ubuntu, Cantarell, &amp;quot;Noto Sans&amp;quot;, sans-serif, &amp;quot;Helvetica Neue&amp;quot;, Arial, &amp;quot;Apple Color Emoji&amp;quot;, &amp;quot;Segoe UI Emoji&amp;quot;, &amp;quot;Segoe UI Symbol&amp;quot;, &amp;quot;Noto Color Emoji&amp;quot;; font-size: 16px; white-space-collapse: preserve;&quot;&gt;&lt;li style=&quot;border: 0px solid rgb(227, 227, 227); box-sizing: border-box; --tw-border-spacing-x: 0; --tw-border-spacing-y: 0; --tw-translate-x: 0; --tw-translate-y: 0; --tw-rotate: 0; --tw-skew-x: 0; --tw-skew-y: 0; --tw-scale-x: 1; --tw-scale-y: 1; --tw-pan-x: ; --tw-pan-y: ; --tw-pinch-zoom: ; --tw-scroll-snap-strictness: proximity; --tw-gradient-from-position: ; --tw-gradient-via-position: ; --tw-gradient-to-position: ; --tw-ordinal: ; --tw-slashed-zero: ; --tw-numeric-figure: ; --tw-numeric-spacing: ; --tw-numeric-fraction: ; --tw-ring-inset: ; --tw-ring-offset-width: 0px; --tw-ring-offset-color: #fff; --tw-ring-color: rgba(69,89,164,.5); --tw-ring-offset-shadow: 0 0 transparent; --tw-ring-shadow: 0 0 transparent; --tw-shadow: 0 0 transparent; --tw-shadow-colored: 0 0 transparent; --tw-blur: ; --tw-brightness: ; --tw-contrast: ; --tw-grayscale: ; --tw-hue-rotate: ; --tw-invert: ; --tw-saturate: ; --tw-sepia: ; --tw-drop-shadow: ; --tw-backdrop-blur: ; --tw-backdrop-brightness: ; --tw-backdrop-contrast: ; --tw-backdrop-grayscale: ; --tw-backdrop-hue-rotate: ; --tw-backdrop-invert: ; --tw-backdrop-opacity: ; --tw-backdrop-saturate: ; --tw-backdrop-sepia: ; margin: 0px; padding-left: 0.375em; display: block; min-height: 28px;&quot;&gt;Energy source dependency: Include information about which energy resources the load is currently connected to or dependent on for its energy supply. This could involve binary indicators for each available energy resource (e.g., grid, PV panels, wind turbine, batteries, etc.) to signify whether the load is connected to them or not.&lt;/li&gt;&lt;li style=&quot;border: 0px solid rgb(227, 227, 227); box-sizing: border-box; --tw-border-spacing-x: 0; --tw-border-spacing-y: 0; --tw-translate-x: 0; --tw-translate-y: 0; --tw-rotate: 0; --tw-skew-x: 0; --tw-skew-y: 0; --tw-scale-x: 1; --tw-scale-y: 1; --tw-pan-x: ; --tw-pan-y: ; --tw-pinch-zoom: ; --tw-scroll-snap-strictness: proximity; --tw-gradient-from-position: ; --tw-gradient-via-position: ; --tw-gradient-to-position: ; --tw-ordinal: ; --tw-slashed-zero: ; --tw-numeric-figure: ; --tw-numeric-spacing: ; --tw-numeric-fraction: ; --tw-ring-inset: ; --tw-ring-offset-width: 0px; --tw-ring-offset-color: #fff; --tw-ring-color: rgba(69,89,164,.5); --tw-ring-offset-shadow: 0 0 transparent; --tw-ring-shadow: 0 0 transparent; --tw-shadow: 0 0 transparent; --tw-shadow-colored: 0 0 transparent; --tw-blur: ; --tw-brightness: ; --tw-contrast: ; --tw-grayscale: ; --tw-hue-rotate: ; --tw-invert: ; --tw-saturate: ; --tw-sepia: ; --tw-drop-shadow: ; --tw-backdrop-blur: ; --tw-backdrop-brightness: ; --tw-backdrop-contrast: ; --tw-backdrop-grayscale: ; --tw-backdrop-hue-rotate: ; --tw-backdrop-invert: ; --tw-backdrop-opacity: ; --tw-backdrop-saturate: ; --tw-backdrop-sepia: ; margin: 0px; padding-left: 0.375em; display: block; min-height: 28px;&quot;&gt;&lt;br&gt;&lt;/li&gt;&lt;li style=&quot;border: 0px solid rgb(227, 227, 227); box-sizing: border-box; --tw-border-spacing-x: 0; --tw-border-spacing-y: 0; --tw-translate-x: 0; --tw-translate-y: 0; --tw-rotate: 0; --tw-skew-x: 0; --tw-skew-y: 0; --tw-scale-x: 1; --tw-scale-y: 1; --tw-pan-x: ; --tw-pan-y: ; --tw-pinch-zoom: ; --tw-scroll-snap-strictness: proximity; --tw-gradient-from-position: ; --tw-gradient-via-position: ; --tw-gradient-to-position: ; --tw-ordinal: ; --tw-slashed-zero: ; --tw-numeric-figure: ; --tw-numeric-spacing: ; --tw-numeric-fraction: ; --tw-ring-inset: ; --tw-ring-offset-width: 0px; --tw-ring-offset-color: #fff; --tw-ring-color: rgba(69,89,164,.5); --tw-ring-offset-shadow: 0 0 transparent; --tw-ring-shadow: 0 0 transparent; --tw-shadow: 0 0 transparent; --tw-shadow-colored: 0 0 transparent; --tw-blur: ; --tw-brightness: ; --tw-contrast: ; --tw-grayscale: ; --tw-hue-rotate: ; --tw-invert: ; --tw-saturate: ; --tw-sepia: ; --tw-drop-shadow: ; --tw-backdrop-blur: ; --tw-backdrop-brightness: ; --tw-backdrop-contrast: ; --tw-backdrop-grayscale: ; --tw-backdrop-hue-rotate: ; --tw-backdrop-invert: ; --tw-backdrop-opacity: ; --tw-backdrop-saturate: ; --tw-backdrop-sepia: ; margin: 0px; padding-left: 0.375em; display: block; min-height: 28px;&quot;&gt;Energy exchange partners: If the load is engaged in energy exchange with other components in the microgrid, include information about the energy exchange partners. For instance, if the load is receiving energy from or supplying energy to specific DERs or storage systems, represent these relationships in the state.&lt;/li&gt;&lt;li style=&quot;border: 0px solid rgb(227, 227, 227); box-sizing: border-box; --tw-border-spacing-x: 0; --tw-border-spacing-y: 0; --tw-translate-x: 0; --tw-translate-y: 0; --tw-rotate: 0; --tw-skew-x: 0; --tw-skew-y: 0; --tw-scale-x: 1; --tw-scale-y: 1; --tw-pan-x: ; --tw-pan-y: ; --tw-pinch-zoom: ; --tw-scroll-snap-strictness: proximity; --tw-gradient-from-position: ; --tw-gradient-via-position: ; --tw-gradient-to-position: ; --tw-ordinal: ; --tw-slashed-zero: ; --tw-numeric-figure: ; --tw-numeric-spacing: ; --tw-numeric-fraction: ; --tw-ring-inset: ; --tw-ring-offset-width: 0px; --tw-ring-offset-color: #fff; --tw-ring-color: rgba(69,89,164,.5); --tw-ring-offset-shadow: 0 0 transparent; --tw-ring-shadow: 0 0 transparent; --tw-shadow: 0 0 transparent; --tw-shadow-colored: 0 0 transparent; --tw-blur: ; --tw-brightness: ; --tw-contrast: ; --tw-grayscale: ; --tw-hue-rotate: ; --tw-invert: ; --tw-saturate: ; --tw-sepia: ; --tw-drop-shadow: ; --tw-backdrop-blur: ; --tw-backdrop-brightness: ; --tw-backdrop-contrast: ; --tw-backdrop-grayscale: ; --tw-backdrop-hue-rotate: ; --tw-backdrop-invert: ; --tw-backdrop-opacity: ; --tw-backdrop-saturate: ; --tw-backdrop-sepia: ; margin: 0px; padding-left: 0.375em; display: block; min-height: 28px;&quot;&gt;&lt;br&gt;&lt;/li&gt;&lt;li style=&quot;border: 0px solid rgb(227, 227, 227); box-sizing: border-box; --tw-border-spacing-x: 0; --tw-border-spacing-y: 0; --tw-translate-x: 0; --tw-translate-y: 0; --tw-rotate: 0; --tw-skew-x: 0; --tw-skew-y: 0; --tw-scale-x: 1; --tw-scale-y: 1; --tw-pan-x: ; --tw-pan-y: ; --tw-pinch-zoom: ; --tw-scroll-snap-strictness: proximity; --tw-gradient-from-position: ; --tw-gradient-via-position: ; --tw-gradient-to-position: ; --tw-ordinal: ; --tw-slashed-zero: ; --tw-numeric-figure: ; --tw-numeric-spacing: ; --tw-numeric-fraction: ; --tw-ring-inset: ; --tw-ring-offset-width: 0px; --tw-ring-offset-color: #fff; --tw-ring-color: rgba(69,89,164,.5); --tw-ring-offset-shadow: 0 0 transparent; --tw-ring-shadow: 0 0 transparent; --tw-shadow: 0 0 transparent; --tw-shadow-colored: 0 0 transparent; --tw-blur: ; --tw-brightness: ; --tw-contrast: ; --tw-grayscale: ; --tw-hue-rotate: ; --tw-invert: ; --tw-saturate: ; --tw-sepia: ; --tw-drop-shadow: ; --tw-backdrop-blur: ; --tw-backdrop-brightness: ; --tw-backdrop-contrast: ; --tw-backdrop-grayscale: ; --tw-backdrop-hue-rotate: ; --tw-backdrop-invert: ; --tw-backdrop-opacity: ; --tw-backdrop-saturate: ; --tw-backdrop-sepia: ; margin: 0px; padding-left: 0.375em; display: block; min-height: 28px;&quot;&gt;Energy flow direction: Specify the direction of energy flow for each energy resource connected to the load. This could indicate whether the load is importing or exporting energy from/to different sources.&lt;/li&gt;&lt;li style=&quot;border: 0px solid rgb(227, 227, 227); box-sizing: border-box; --tw-border-spacing-x: 0; --tw-border-spacing-y: 0; --tw-translate-x: 0; --tw-translate-y: 0; --tw-rotate: 0; --tw-skew-x: 0; --tw-skew-y: 0; --tw-scale-x: 1; --tw-scale-y: 1; --tw-pan-x: ; --tw-pan-y: ; --tw-pinch-zoom: ; --tw-scroll-snap-strictness: proximity; --tw-gradient-from-position: ; --tw-gradient-via-position: ; --tw-gradient-to-position: ; --tw-ordinal: ; --tw-slashed-zero: ; --tw-numeric-figure: ; --tw-numeric-spacing: ; --tw-numeric-fraction: ; --tw-ring-inset: ; --tw-ring-offset-width: 0px; --tw-ring-offset-color: #fff; --tw-ring-color: rgba(69,89,164,.5); --tw-ring-offset-shadow: 0 0 transparent; --tw-ring-shadow: 0 0 transparent; --tw-shadow: 0 0 transparent; --tw-shadow-colored: 0 0 transparent; --tw-blur: ; --tw-brightness: ; --tw-contrast: ; --tw-grayscale: ; --tw-hue-rotate: ; --tw-invert: ; --tw-saturate: ; --tw-sepia: ; --tw-drop-shadow: ; --tw-backdrop-blur: ; --tw-backdrop-brightness: ; --tw-backdrop-contrast: ; --tw-backdrop-grayscale: ; --tw-backdrop-hue-rotate: ; --tw-backdrop-invert: ; --tw-backdrop-opacity: ; --tw-backdrop-saturate: ; --tw-backdrop-sepia: ; margin: 0px; padding-left: 0.375em; display: block; min-height: 28px;&quot;&gt;&lt;br&gt;&lt;/li&gt;&lt;li style=&quot;border: 0px solid rgb(227, 227, 227); box-sizing: border-box; --tw-border-spacing-x: 0; --tw-border-spacing-y: 0; --tw-translate-x: 0; --tw-translate-y: 0; --tw-rotate: 0; --tw-skew-x: 0; --tw-skew-y: 0; --tw-scale-x: 1; --tw-scale-y: 1; --tw-pan-x: ; --tw-pan-y: ; --tw-pinch-zoom: ; --tw-scroll-snap-strictness: proximity; --tw-gradient-from-position: ; --tw-gradient-via-position: ; --tw-gradient-to-position: ; --tw-ordinal: ; --tw-slashed-zero: ; --tw-numeric-figure: ; --tw-numeric-spacing: ; --tw-numeric-fraction: ; --tw-ring-inset: ; --tw-ring-offset-width: 0px; --tw-ring-offset-color: #fff; --tw-ring-color: rgba(69,89,164,.5); --tw-ring-offset-shadow: 0 0 transparent; --tw-ring-shadow: 0 0 transparent; --tw-shadow: 0 0 transparent; --tw-shadow-colored: 0 0 transparent; --tw-blur: ; --tw-brightness: ; --tw-contrast: ; --tw-grayscale: ; --tw-hue-rotate: ; --tw-invert: ; --tw-saturate: ; --tw-sepia: ; --tw-drop-shadow: ; --tw-backdrop-blur: ; --tw-backdrop-brightness: ; --tw-backdrop-contrast: ; --tw-backdrop-grayscale: ; --tw-backdrop-hue-rotate: ; --tw-backdrop-invert: ; --tw-backdrop-opacity: ; --tw-backdrop-saturate: ; --tw-backdrop-sepia: ; margin: 0px; padding-left: 0.375em; display: block; min-height: 28px;&quot;&gt;Internal energy generation/consumption: Incorporate information about any internal energy generation or consumption within the load itself, such as energy generated by on-site renewable sources or energy consumed by internal processes.&lt;/li&gt;&lt;/ul&gt;" style="ellipse;whiteSpace=wrap;html=1;align=center;" parent="1" vertex="1">
          <mxGeometry x="-3018" y="595.5" width="1154" height="500" as="geometry" />
        </mxCell>
        <mxCell id="elY4dSQkRPukDRElFY_X-38" value="&lt;p style=&quot;border: 0px solid rgb(227, 227, 227); box-sizing: border-box; --tw-border-spacing-x: 0; --tw-border-spacing-y: 0; --tw-translate-x: 0; --tw-translate-y: 0; --tw-rotate: 0; --tw-skew-x: 0; --tw-skew-y: 0; --tw-scale-x: 1; --tw-scale-y: 1; --tw-pan-x: ; --tw-pan-y: ; --tw-pinch-zoom: ; --tw-scroll-snap-strictness: proximity; --tw-gradient-from-position: ; --tw-gradient-via-position: ; --tw-gradient-to-position: ; --tw-ordinal: ; --tw-slashed-zero: ; --tw-numeric-figure: ; --tw-numeric-spacing: ; --tw-numeric-fraction: ; --tw-ring-inset: ; --tw-ring-offset-width: 0px; --tw-ring-offset-color: #fff; --tw-ring-color: rgba(69,89,164,.5); --tw-ring-offset-shadow: 0 0 transparent; --tw-ring-shadow: 0 0 transparent; --tw-shadow: 0 0 transparent; --tw-shadow-colored: 0 0 transparent; --tw-blur: ; --tw-brightness: ; --tw-contrast: ; --tw-grayscale: ; --tw-hue-rotate: ; --tw-invert: ; --tw-saturate: ; --tw-sepia: ; --tw-drop-shadow: ; --tw-backdrop-blur: ; --tw-backdrop-brightness: ; --tw-backdrop-contrast: ; --tw-backdrop-grayscale: ; --tw-backdrop-hue-rotate: ; --tw-backdrop-invert: ; --tw-backdrop-opacity: ; --tw-backdrop-saturate: ; --tw-backdrop-sepia: ; margin: 0px; color: rgb(13, 13, 13); font-family: Söhne, ui-sans-serif, system-ui, -apple-system, &amp;quot;Segoe UI&amp;quot;, Roboto, Ubuntu, Cantarell, &amp;quot;Noto Sans&amp;quot;, sans-serif, &amp;quot;Helvetica Neue&amp;quot;, Arial, &amp;quot;Apple Color Emoji&amp;quot;, &amp;quot;Segoe UI Emoji&amp;quot;, &amp;quot;Segoe UI Symbol&amp;quot;, &amp;quot;Noto Color Emoji&amp;quot;; font-size: 16px; white-space-collapse: preserve;&quot;&gt;&lt;span style=&quot;border: 0px solid rgb(227, 227, 227); box-sizing: border-box; --tw-border-spacing-x: 0; --tw-border-spacing-y: 0; --tw-translate-x: 0; --tw-translate-y: 0; --tw-rotate: 0; --tw-skew-x: 0; --tw-skew-y: 0; --tw-scale-x: 1; --tw-scale-y: 1; --tw-pan-x: ; --tw-pan-y: ; --tw-pinch-zoom: ; --tw-scroll-snap-strictness: proximity; --tw-gradient-from-position: ; --tw-gradient-via-position: ; --tw-gradient-to-position: ; --tw-ordinal: ; --tw-slashed-zero: ; --tw-numeric-figure: ; --tw-numeric-spacing: ; --tw-numeric-fraction: ; --tw-ring-inset: ; --tw-ring-offset-width: 0px; --tw-ring-offset-color: #fff; --tw-ring-color: rgba(69,89,164,.5); --tw-ring-offset-shadow: 0 0 transparent; --tw-ring-shadow: 0 0 transparent; --tw-shadow: 0 0 transparent; --tw-shadow-colored: 0 0 transparent; --tw-blur: ; --tw-brightness: ; --tw-contrast: ; --tw-grayscale: ; --tw-hue-rotate: ; --tw-invert: ; --tw-saturate: ; --tw-sepia: ; --tw-drop-shadow: ; --tw-backdrop-blur: ; --tw-backdrop-brightness: ; --tw-backdrop-contrast: ; --tw-backdrop-grayscale: ; --tw-backdrop-hue-rotate: ; --tw-backdrop-invert: ; --tw-backdrop-opacity: ; --tw-backdrop-saturate: ; --tw-backdrop-sepia: ; font-weight: 600; color: var(--tw-prose-bold);&quot;&gt;Action:&lt;/span&gt;&lt;/p&gt;&lt;ul style=&quot;border: 0px solid rgb(227, 227, 227); box-sizing: border-box; --tw-border-spacing-x: 0; --tw-border-spacing-y: 0; --tw-translate-x: 0; --tw-translate-y: 0; --tw-rotate: 0; --tw-skew-x: 0; --tw-skew-y: 0; --tw-scale-x: 1; --tw-scale-y: 1; --tw-pan-x: ; --tw-pan-y: ; --tw-pinch-zoom: ; --tw-scroll-snap-strictness: proximity; --tw-gradient-from-position: ; --tw-gradient-via-position: ; --tw-gradient-to-position: ; --tw-ordinal: ; --tw-slashed-zero: ; --tw-numeric-figure: ; --tw-numeric-spacing: ; --tw-numeric-fraction: ; --tw-ring-inset: ; --tw-ring-offset-width: 0px; --tw-ring-offset-color: #fff; --tw-ring-color: rgba(69,89,164,.5); --tw-ring-offset-shadow: 0 0 transparent; --tw-ring-shadow: 0 0 transparent; --tw-shadow: 0 0 transparent; --tw-shadow-colored: 0 0 transparent; --tw-blur: ; --tw-brightness: ; --tw-contrast: ; --tw-grayscale: ; --tw-hue-rotate: ; --tw-invert: ; --tw-saturate: ; --tw-sepia: ; --tw-drop-shadow: ; --tw-backdrop-blur: ; --tw-backdrop-brightness: ; --tw-backdrop-contrast: ; --tw-backdrop-grayscale: ; --tw-backdrop-hue-rotate: ; --tw-backdrop-invert: ; --tw-backdrop-opacity: ; --tw-backdrop-saturate: ; --tw-backdrop-sepia: ; list-style-position: initial; list-style-image: initial; margin: 0px 0px 0px 1rem; padding: 0px; display: flex; flex-direction: column; color: rgb(13, 13, 13); font-family: Söhne, ui-sans-serif, system-ui, -apple-system, &amp;quot;Segoe UI&amp;quot;, Roboto, Ubuntu, Cantarell, &amp;quot;Noto Sans&amp;quot;, sans-serif, &amp;quot;Helvetica Neue&amp;quot;, Arial, &amp;quot;Apple Color Emoji&amp;quot;, &amp;quot;Segoe UI Emoji&amp;quot;, &amp;quot;Segoe UI Symbol&amp;quot;, &amp;quot;Noto Color Emoji&amp;quot;; font-size: 16px; white-space-collapse: preserve;&quot;&gt;&lt;li style=&quot;border: 0px solid rgb(227, 227, 227); box-sizing: border-box; --tw-border-spacing-x: 0; --tw-border-spacing-y: 0; --tw-translate-x: 0; --tw-translate-y: 0; --tw-rotate: 0; --tw-skew-x: 0; --tw-skew-y: 0; --tw-scale-x: 1; --tw-scale-y: 1; --tw-pan-x: ; --tw-pan-y: ; --tw-pinch-zoom: ; --tw-scroll-snap-strictness: proximity; --tw-gradient-from-position: ; --tw-gradient-via-position: ; --tw-gradient-to-position: ; --tw-ordinal: ; --tw-slashed-zero: ; --tw-numeric-figure: ; --tw-numeric-spacing: ; --tw-numeric-fraction: ; --tw-ring-inset: ; --tw-ring-offset-width: 0px; --tw-ring-offset-color: #fff; --tw-ring-color: rgba(69,89,164,.5); --tw-ring-offset-shadow: 0 0 transparent; --tw-ring-shadow: 0 0 transparent; --tw-shadow: 0 0 transparent; --tw-shadow-colored: 0 0 transparent; --tw-blur: ; --tw-brightness: ; --tw-contrast: ; --tw-grayscale: ; --tw-hue-rotate: ; --tw-invert: ; --tw-saturate: ; --tw-sepia: ; --tw-drop-shadow: ; --tw-backdrop-blur: ; --tw-backdrop-brightness: ; --tw-backdrop-contrast: ; --tw-backdrop-grayscale: ; --tw-backdrop-hue-rotate: ; --tw-backdrop-invert: ; --tw-backdrop-opacity: ; --tw-backdrop-saturate: ; --tw-backdrop-sepia: ; margin: 0px; padding-left: 0.375em; display: block; min-height: 28px;&quot;&gt;On/off scheduling: Determining when loads should be turned on or off to meet energy demand.&lt;/li&gt;&lt;li style=&quot;border: 0px solid rgb(227, 227, 227); box-sizing: border-box; --tw-border-spacing-x: 0; --tw-border-spacing-y: 0; --tw-translate-x: 0; --tw-translate-y: 0; --tw-rotate: 0; --tw-skew-x: 0; --tw-skew-y: 0; --tw-scale-x: 1; --tw-scale-y: 1; --tw-pan-x: ; --tw-pan-y: ; --tw-pinch-zoom: ; --tw-scroll-snap-strictness: proximity; --tw-gradient-from-position: ; --tw-gradient-via-position: ; --tw-gradient-to-position: ; --tw-ordinal: ; --tw-slashed-zero: ; --tw-numeric-figure: ; --tw-numeric-spacing: ; --tw-numeric-fraction: ; --tw-ring-inset: ; --tw-ring-offset-width: 0px; --tw-ring-offset-color: #fff; --tw-ring-color: rgba(69,89,164,.5); --tw-ring-offset-shadow: 0 0 transparent; --tw-ring-shadow: 0 0 transparent; --tw-shadow: 0 0 transparent; --tw-shadow-colored: 0 0 transparent; --tw-blur: ; --tw-brightness: ; --tw-contrast: ; --tw-grayscale: ; --tw-hue-rotate: ; --tw-invert: ; --tw-saturate: ; --tw-sepia: ; --tw-drop-shadow: ; --tw-backdrop-blur: ; --tw-backdrop-brightness: ; --tw-backdrop-contrast: ; --tw-backdrop-grayscale: ; --tw-backdrop-hue-rotate: ; --tw-backdrop-invert: ; --tw-backdrop-opacity: ; --tw-backdrop-saturate: ; --tw-backdrop-sepia: ; margin: 0px; padding-left: 0.375em; display: block; min-height: 28px;&quot;&gt;Load shedding: Temporarily reducing or shedding non-critical loads during peak demand or emergencies.&lt;/li&gt;&lt;li style=&quot;border: 0px solid rgb(227, 227, 227); box-sizing: border-box; --tw-border-spacing-x: 0; --tw-border-spacing-y: 0; --tw-translate-x: 0; --tw-translate-y: 0; --tw-rotate: 0; --tw-skew-x: 0; --tw-skew-y: 0; --tw-scale-x: 1; --tw-scale-y: 1; --tw-pan-x: ; --tw-pan-y: ; --tw-pinch-zoom: ; --tw-scroll-snap-strictness: proximity; --tw-gradient-from-position: ; --tw-gradient-via-position: ; --tw-gradient-to-position: ; --tw-ordinal: ; --tw-slashed-zero: ; --tw-numeric-figure: ; --tw-numeric-spacing: ; --tw-numeric-fraction: ; --tw-ring-inset: ; --tw-ring-offset-width: 0px; --tw-ring-offset-color: #fff; --tw-ring-color: rgba(69,89,164,.5); --tw-ring-offset-shadow: 0 0 transparent; --tw-ring-shadow: 0 0 transparent; --tw-shadow: 0 0 transparent; --tw-shadow-colored: 0 0 transparent; --tw-blur: ; --tw-brightness: ; --tw-contrast: ; --tw-grayscale: ; --tw-hue-rotate: ; --tw-invert: ; --tw-saturate: ; --tw-sepia: ; --tw-drop-shadow: ; --tw-backdrop-blur: ; --tw-backdrop-brightness: ; --tw-backdrop-contrast: ; --tw-backdrop-grayscale: ; --tw-backdrop-hue-rotate: ; --tw-backdrop-invert: ; --tw-backdrop-opacity: ; --tw-backdrop-saturate: ; --tw-backdrop-sepia: ; margin: 0px; padding-left: 0.375em; display: block; min-height: 28px;&quot;&gt;Load shifting: Shifting energy consumption to off-peak hours or times when renewable energy generation is high.&lt;/li&gt;&lt;li style=&quot;border: 0px solid rgb(227, 227, 227); box-sizing: border-box; --tw-border-spacing-x: 0; --tw-border-spacing-y: 0; --tw-translate-x: 0; --tw-translate-y: 0; --tw-rotate: 0; --tw-skew-x: 0; --tw-skew-y: 0; --tw-scale-x: 1; --tw-scale-y: 1; --tw-pan-x: ; --tw-pan-y: ; --tw-pinch-zoom: ; --tw-scroll-snap-strictness: proximity; --tw-gradient-from-position: ; --tw-gradient-via-position: ; --tw-gradient-to-position: ; --tw-ordinal: ; --tw-slashed-zero: ; --tw-numeric-figure: ; --tw-numeric-spacing: ; --tw-numeric-fraction: ; --tw-ring-inset: ; --tw-ring-offset-width: 0px; --tw-ring-offset-color: #fff; --tw-ring-color: rgba(69,89,164,.5); --tw-ring-offset-shadow: 0 0 transparent; --tw-ring-shadow: 0 0 transparent; --tw-shadow: 0 0 transparent; --tw-shadow-colored: 0 0 transparent; --tw-blur: ; --tw-brightness: ; --tw-contrast: ; --tw-grayscale: ; --tw-hue-rotate: ; --tw-invert: ; --tw-saturate: ; --tw-sepia: ; --tw-drop-shadow: ; --tw-backdrop-blur: ; --tw-backdrop-brightness: ; --tw-backdrop-contrast: ; --tw-backdrop-grayscale: ; --tw-backdrop-hue-rotate: ; --tw-backdrop-invert: ; --tw-backdrop-opacity: ; --tw-backdrop-saturate: ; --tw-backdrop-sepia: ; margin: 0px; padding-left: 0.375em; display: block; min-height: 28px;&quot;&gt;Power factor correction: Adjusting the power factor of loads to optimize energy efficiency.&lt;/li&gt;&lt;li style=&quot;border: 0px solid rgb(227, 227, 227); box-sizing: border-box; --tw-border-spacing-x: 0; --tw-border-spacing-y: 0; --tw-translate-x: 0; --tw-translate-y: 0; --tw-rotate: 0; --tw-skew-x: 0; --tw-skew-y: 0; --tw-scale-x: 1; --tw-scale-y: 1; --tw-pan-x: ; --tw-pan-y: ; --tw-pinch-zoom: ; --tw-scroll-snap-strictness: proximity; --tw-gradient-from-position: ; --tw-gradient-via-position: ; --tw-gradient-to-position: ; --tw-ordinal: ; --tw-slashed-zero: ; --tw-numeric-figure: ; --tw-numeric-spacing: ; --tw-numeric-fraction: ; --tw-ring-inset: ; --tw-ring-offset-width: 0px; --tw-ring-offset-color: #fff; --tw-ring-color: rgba(69,89,164,.5); --tw-ring-offset-shadow: 0 0 transparent; --tw-ring-shadow: 0 0 transparent; --tw-shadow: 0 0 transparent; --tw-shadow-colored: 0 0 transparent; --tw-blur: ; --tw-brightness: ; --tw-contrast: ; --tw-grayscale: ; --tw-hue-rotate: ; --tw-invert: ; --tw-saturate: ; --tw-sepia: ; --tw-drop-shadow: ; --tw-backdrop-blur: ; --tw-backdrop-brightness: ; --tw-backdrop-contrast: ; --tw-backdrop-grayscale: ; --tw-backdrop-hue-rotate: ; --tw-backdrop-invert: ; --tw-backdrop-opacity: ; --tw-backdrop-saturate: ; --tw-backdrop-sepia: ; margin: 0px; padding-left: 0.375em; display: block; min-height: 28px;&quot;&gt;Demand response: Participating in demand response programs by adjusting load consumption in response to external signals or incentives.&lt;/li&gt;&lt;/ul&gt;" style="ellipse;whiteSpace=wrap;html=1;align=center;" parent="1" vertex="1">
          <mxGeometry x="-2083" y="1007" width="599" height="451" as="geometry" />
        </mxCell>
        <mxCell id="elY4dSQkRPukDRElFY_X-39" value="Environment" style="ellipse;whiteSpace=wrap;html=1;" parent="1" vertex="1">
          <mxGeometry x="-1391" y="931" width="180" height="91" as="geometry" />
        </mxCell>
        <mxCell id="elY4dSQkRPukDRElFY_X-43" value="State:&amp;nbsp;&lt;span style=&quot;color: rgb(13, 13, 13); font-family: Söhne, ui-sans-serif, system-ui, -apple-system, &amp;quot;Segoe UI&amp;quot;, Roboto, Ubuntu, Cantarell, &amp;quot;Noto Sans&amp;quot;, sans-serif, &amp;quot;Helvetica Neue&amp;quot;, Arial, &amp;quot;Apple Color Emoji&amp;quot;, &amp;quot;Segoe UI Emoji&amp;quot;, &amp;quot;Segoe UI Symbol&amp;quot;, &amp;quot;Noto Color Emoji&amp;quot;; font-size: 16px; text-align: left; white-space-collapse: preserve;&quot;&gt;State of charge (SOC), &lt;/span&gt;&lt;span style=&quot;color: rgb(13, 13, 13); font-family: Söhne, ui-sans-serif, system-ui, -apple-system, &amp;quot;Segoe UI&amp;quot;, Roboto, Ubuntu, Cantarell, &amp;quot;Noto Sans&amp;quot;, sans-serif, &amp;quot;Helvetica Neue&amp;quot;, Arial, &amp;quot;Apple Color Emoji&amp;quot;, &amp;quot;Segoe UI Emoji&amp;quot;, &amp;quot;Segoe UI Symbol&amp;quot;, &amp;quot;Noto Color Emoji&amp;quot;; font-size: 16px; text-align: left; white-space-collapse: preserve;&quot;&gt;Charging/discharging rate, Life cycles left &lt;/span&gt;" style="ellipse;whiteSpace=wrap;html=1;" parent="1" vertex="1">
          <mxGeometry x="-1263" y="85" width="250" height="146" as="geometry" />
        </mxCell>
        <mxCell id="elY4dSQkRPukDRElFY_X-44" value="Action:&amp;nbsp;&lt;span style=&quot;color: rgb(13, 13, 13); font-family: Söhne, ui-sans-serif, system-ui, -apple-system, &amp;quot;Segoe UI&amp;quot;, Roboto, Ubuntu, Cantarell, &amp;quot;Noto Sans&amp;quot;, sans-serif, &amp;quot;Helvetica Neue&amp;quot;, Arial, &amp;quot;Apple Color Emoji&amp;quot;, &amp;quot;Segoe UI Emoji&amp;quot;, &amp;quot;Segoe UI Symbol&amp;quot;, &amp;quot;Noto Color Emoji&amp;quot;; font-size: 16px; text-align: left; white-space-collapse: preserve;&quot;&gt;Standby mode. Charge/Discharge&lt;/span&gt;" style="ellipse;whiteSpace=wrap;html=1;" parent="1" vertex="1">
          <mxGeometry x="-1382" y="261" width="180" height="91" as="geometry" />
        </mxCell>
        <mxCell id="elY4dSQkRPukDRElFY_X-45" value="Environment:&amp;nbsp;&lt;ul style=&quot;border: 0px solid rgb(227, 227, 227); box-sizing: border-box; --tw-border-spacing-x: 0; --tw-border-spacing-y: 0; --tw-translate-x: 0; --tw-translate-y: 0; --tw-rotate: 0; --tw-skew-x: 0; --tw-skew-y: 0; --tw-scale-x: 1; --tw-scale-y: 1; --tw-pan-x: ; --tw-pan-y: ; --tw-pinch-zoom: ; --tw-scroll-snap-strictness: proximity; --tw-gradient-from-position: ; --tw-gradient-via-position: ; --tw-gradient-to-position: ; --tw-ordinal: ; --tw-slashed-zero: ; --tw-numeric-figure: ; --tw-numeric-spacing: ; --tw-numeric-fraction: ; --tw-ring-inset: ; --tw-ring-offset-width: 0px; --tw-ring-offset-color: #fff; --tw-ring-color: rgba(69,89,164,.5); --tw-ring-offset-shadow: 0 0 transparent; --tw-ring-shadow: 0 0 transparent; --tw-shadow: 0 0 transparent; --tw-shadow-colored: 0 0 transparent; --tw-blur: ; --tw-brightness: ; --tw-contrast: ; --tw-grayscale: ; --tw-hue-rotate: ; --tw-invert: ; --tw-saturate: ; --tw-sepia: ; --tw-drop-shadow: ; --tw-backdrop-blur: ; --tw-backdrop-brightness: ; --tw-backdrop-contrast: ; --tw-backdrop-grayscale: ; --tw-backdrop-hue-rotate: ; --tw-backdrop-invert: ; --tw-backdrop-opacity: ; --tw-backdrop-saturate: ; --tw-backdrop-sepia: ; list-style-position: initial; list-style-image: initial; margin: 0px 0px 0px 1rem; padding: 0px; display: flex; flex-direction: column; color: rgb(13, 13, 13); font-family: Söhne, ui-sans-serif, system-ui, -apple-system, &amp;quot;Segoe UI&amp;quot;, Roboto, Ubuntu, Cantarell, &amp;quot;Noto Sans&amp;quot;, sans-serif, &amp;quot;Helvetica Neue&amp;quot;, Arial, &amp;quot;Apple Color Emoji&amp;quot;, &amp;quot;Segoe UI Emoji&amp;quot;, &amp;quot;Segoe UI Symbol&amp;quot;, &amp;quot;Noto Color Emoji&amp;quot;; font-size: 16px; white-space-collapse: preserve;&quot;&gt;&lt;li style=&quot;border: 0px solid rgb(227, 227, 227); box-sizing: border-box; --tw-border-spacing-x: 0; --tw-border-spacing-y: 0; --tw-translate-x: 0; --tw-translate-y: 0; --tw-rotate: 0; --tw-skew-x: 0; --tw-skew-y: 0; --tw-scale-x: 1; --tw-scale-y: 1; --tw-pan-x: ; --tw-pan-y: ; --tw-pinch-zoom: ; --tw-scroll-snap-strictness: proximity; --tw-gradient-from-position: ; --tw-gradient-via-position: ; --tw-gradient-to-position: ; --tw-ordinal: ; --tw-slashed-zero: ; --tw-numeric-figure: ; --tw-numeric-spacing: ; --tw-numeric-fraction: ; --tw-ring-inset: ; --tw-ring-offset-width: 0px; --tw-ring-offset-color: #fff; --tw-ring-color: rgba(69,89,164,.5); --tw-ring-offset-shadow: 0 0 transparent; --tw-ring-shadow: 0 0 transparent; --tw-shadow: 0 0 transparent; --tw-shadow-colored: 0 0 transparent; --tw-blur: ; --tw-brightness: ; --tw-contrast: ; --tw-grayscale: ; --tw-hue-rotate: ; --tw-invert: ; --tw-saturate: ; --tw-sepia: ; --tw-drop-shadow: ; --tw-backdrop-blur: ; --tw-backdrop-brightness: ; --tw-backdrop-contrast: ; --tw-backdrop-grayscale: ; --tw-backdrop-hue-rotate: ; --tw-backdrop-invert: ; --tw-backdrop-opacity: ; --tw-backdrop-saturate: ; --tw-backdrop-sepia: ; margin: 0px; padding-left: 0.375em; display: block; min-height: 28px;&quot;&gt;Energy demand, &lt;span style=&quot;background-color: initial;&quot;&gt;Energy generation: The availability of renewable energy sources (such as solar or wind) that can charge the batteries. &lt;/span&gt;&lt;span style=&quot;background-color: initial;&quot;&gt;Grid status: The condition of the main grid, including grid stability, availability, and electricity prices. &lt;/span&gt;&lt;span style=&quot;background-color: initial;&quot;&gt;Other DERs: The behavior of other Distributed Energy Resources within the microgrid, such as PV panels, wind turbines, and EVs. &lt;/span&gt;&lt;span style=&quot;background-color: initial;&quot;&gt;Operational constraints: Constraints related to battery capacity, efficiency, and performance limits.&lt;/span&gt;&lt;/li&gt;&lt;/ul&gt;" style="ellipse;whiteSpace=wrap;html=1;align=center;" parent="1" vertex="1">
          <mxGeometry x="-1894" y="308" width="562" height="255" as="geometry" />
        </mxCell>
        <mxCell id="elY4dSQkRPukDRElFY_X-49" value="&lt;span style=&quot;color: rgb(13, 13, 13); font-family: Söhne, ui-sans-serif, system-ui, -apple-system, &amp;quot;Segoe UI&amp;quot;, Roboto, Ubuntu, Cantarell, &amp;quot;Noto Sans&amp;quot;, sans-serif, &amp;quot;Helvetica Neue&amp;quot;, Arial, &amp;quot;Apple Color Emoji&amp;quot;, &amp;quot;Segoe UI Emoji&amp;quot;, &amp;quot;Segoe UI Symbol&amp;quot;, &amp;quot;Noto Color Emoji&amp;quot;; font-size: 16px; text-align: start; white-space-collapse: preserve;&quot;&gt;PV panels, Windturbine, Thermal power, &lt;/span&gt;&lt;div&gt;&lt;span style=&quot;color: rgb(13, 13, 13); font-family: Söhne, ui-sans-serif, system-ui, -apple-system, &amp;quot;Segoe UI&amp;quot;, Roboto, Ubuntu, Cantarell, &amp;quot;Noto Sans&amp;quot;, sans-serif, &amp;quot;Helvetica Neue&amp;quot;, Arial, &amp;quot;Apple Color Emoji&amp;quot;, &amp;quot;Segoe UI Emoji&amp;quot;, &amp;quot;Segoe UI Symbol&amp;quot;, &amp;quot;Noto Color Emoji&amp;quot;; font-size: 16px; text-align: start; white-space-collapse: preserve;&quot;&gt;Heat pumps, Combined heat and power systems, &lt;/span&gt;&lt;/div&gt;&lt;div&gt;&lt;span style=&quot;color: rgb(13, 13, 13); font-family: Söhne, ui-sans-serif, system-ui, -apple-system, &amp;quot;Segoe UI&amp;quot;, Roboto, Ubuntu, Cantarell, &amp;quot;Noto Sans&amp;quot;, sans-serif, &amp;quot;Helvetica Neue&amp;quot;, Arial, &amp;quot;Apple Color Emoji&amp;quot;, &amp;quot;Segoe UI Emoji&amp;quot;, &amp;quot;Segoe UI Symbol&amp;quot;, &amp;quot;Noto Color Emoji&amp;quot;; font-size: 16px; text-align: start; white-space-collapse: preserve;&quot;&gt;EVs &lt;/span&gt;&lt;/div&gt;" style="ellipse;whiteSpace=wrap;html=1;" parent="1" vertex="1">
          <mxGeometry x="-456" y="561" width="437" height="171" as="geometry" />
        </mxCell>
        <mxCell id="elY4dSQkRPukDRElFY_X-55" value="&lt;span style=&quot;color: rgb(13, 13, 13); font-family: Söhne, ui-sans-serif, system-ui, -apple-system, &amp;quot;Segoe UI&amp;quot;, Roboto, Ubuntu, Cantarell, &amp;quot;Noto Sans&amp;quot;, sans-serif, &amp;quot;Helvetica Neue&amp;quot;, Arial, &amp;quot;Apple Color Emoji&amp;quot;, &amp;quot;Segoe UI Emoji&amp;quot;, &amp;quot;Segoe UI Symbol&amp;quot;, &amp;quot;Noto Color Emoji&amp;quot;; font-size: 16px; text-align: start; white-space-collapse: preserve;&quot;&gt;(Fuel) Batteries&lt;/span&gt;" style="ellipse;whiteSpace=wrap;html=1;" parent="1" vertex="1">
          <mxGeometry x="-968" y="164" width="186" height="90" as="geometry" />
        </mxCell>
        <mxCell id="elY4dSQkRPukDRElFY_X-57" value="&lt;span style=&quot;color: rgb(13, 13, 13); font-family: Söhne, ui-sans-serif, system-ui, -apple-system, &amp;quot;Segoe UI&amp;quot;, Roboto, Ubuntu, Cantarell, &amp;quot;Noto Sans&amp;quot;, sans-serif, &amp;quot;Helvetica Neue&amp;quot;, Arial, &amp;quot;Apple Color Emoji&amp;quot;, &amp;quot;Segoe UI Emoji&amp;quot;, &amp;quot;Segoe UI Symbol&amp;quot;, &amp;quot;Noto Color Emoji&amp;quot;; font-size: 16px; text-align: start; white-space-collapse: preserve;&quot;&gt;Based on &lt;/span&gt;&lt;div&gt;&lt;span style=&quot;color: rgb(13, 13, 13); font-family: Söhne, ui-sans-serif, system-ui, -apple-system, &amp;quot;Segoe UI&amp;quot;, Roboto, Ubuntu, Cantarell, &amp;quot;Noto Sans&amp;quot;, sans-serif, &amp;quot;Helvetica Neue&amp;quot;, Arial, &amp;quot;Apple Color Emoji&amp;quot;, &amp;quot;Segoe UI Emoji&amp;quot;, &amp;quot;Segoe UI Symbol&amp;quot;, &amp;quot;Noto Color Emoji&amp;quot;; font-size: 16px; text-align: start; white-space-collapse: preserve;&quot;&gt;categorization &lt;/span&gt;&lt;br&gt;&lt;/div&gt;" style="ellipse;whiteSpace=wrap;html=1;" parent="1" vertex="1">
          <mxGeometry x="-1208" y="792" width="188" height="88" as="geometry" />
        </mxCell>
      </root>
    </mxGraphModel>
  </diagram>
</mxfile>
